<?xml version="1.0" encoding="UTF-8" standalone="no"?>
<!-- Created with Inkscape (http://www.inkscape.org/) -->

<svg
   xmlns:dc="http://purl.org/dc/elements/1.1/"
   xmlns:cc="http://creativecommons.org/ns#"
   xmlns:rdf="http://www.w3.org/1999/02/22-rdf-syntax-ns#"
   xmlns:svg="http://www.w3.org/2000/svg"
   xmlns="http://www.w3.org/2000/svg"
   xmlns:sodipodi="http://sodipodi.sourceforge.net/DTD/sodipodi-0.dtd"
   xmlns:inkscape="http://www.inkscape.org/namespaces/inkscape"
   width="210mm"
   height="297mm"
   id="svg2"
   version="1.1"
   inkscape:version="0.48.4 r9939"
   sodipodi:docname="dice.svg"
   inkscape:export-filename="C:\Users\Hans\Desktop\dice-negative.png"
   inkscape:export-xdpi="480"
   inkscape:export-ydpi="480">
  <defs
     id="defs4">
    <inkscape:perspective
       sodipodi:type="inkscape:persp3d"
       inkscape:vp_x="192.93914 : 217.07441 : 1"
       inkscape:vp_y="0 : 1000 : 0"
       inkscape:vp_z="937.03362 : 217.07441 : 1"
       inkscape:persp3d-origin="564.98638 : 41.680711 : 1"
       id="perspective2985" />
  </defs>
  <sodipodi:namedview
     id="base"
     pagecolor="#ffffff"
     bordercolor="#666666"
     borderopacity="1.0"
     inkscape:pageopacity="0.0"
     inkscape:pageshadow="2"
     inkscape:zoom="2.8"
     inkscape:cx="113.46534"
     inkscape:cy="663.28577"
     inkscape:document-units="px"
     inkscape:current-layer="layer1"
     showgrid="false"
     inkscape:window-width="1920"
     inkscape:window-height="1137"
     inkscape:window-x="-8"
     inkscape:window-y="-8"
     inkscape:window-maximized="1" />
  <metadata
     id="metadata7">
    <rdf:RDF>
      <cc:Work
         rdf:about="">
        <dc:format>image/svg+xml</dc:format>
        <dc:type
           rdf:resource="http://purl.org/dc/dcmitype/StillImage" />
        <dc:title></dc:title>
      </cc:Work>
    </rdf:RDF>
  </metadata>
  <g
     inkscape:label="Ebene 1"
     inkscape:groupmode="layer"
     id="layer1">
    <path
       style="fill:#aa0000;fill-opacity:1;stroke:none"
       d="M 112.125 121 L 78 180.09375 L 112.125 239.1875 L 146.25 180.09375 L 112.125 121 z "
       id="path3003" />
    <path
       style="fill:#ff0000;fill-opacity:1;stroke:none"
       d="M 112.09375 121 L 146.1875 180.03125 L 146.0625 180.21875 L 214.3125 180.21875 L 180.21875 121.1875 L 180.34375 121 L 112.09375 121 z "
       id="path3003-1-7" />
    <path
       style="fill:#800000;fill-opacity:1;stroke:none"
       d="M 146.21875 179.96875 L 112.09375 239.0625 L 180.28125 239.0625 L 180.375 239.25 L 214.5 180.15625 L 146.3125 180.15625 L 146.21875 179.96875 z "
       id="path3003-1-7-0" />
    <rect
       style="fill:#0000ff;fill-opacity:1;stroke:none"
       id="rect3169"
       width="6.0609155"
       height="6.0609155"
       x="307.84399"
       y="262.67545" />
    <rect
       style="fill:#00ff00;fill-opacity:1;stroke:none"
       id="rect3091-8"
       width="71.973373"
       height="71.973366"
       x="303.92966"
       y="125.92603" />
    <path
       sodipodi:type="arc"
       style="fill:#ffdd55;fill-opacity:1;stroke:none"
       id="path3089-57"
       sodipodi:cx="246.9823"
       sodipodi:cy="166.4584"
       sodipodi:rx="7.5761442"
       sodipodi:ry="7.5761442"
       d="m 254.55844,166.4584 a 7.5761442,7.5761442 0 1 1 -15.15228,0 7.5761442,7.5761442 0 1 1 15.15228,0 z"
       transform="translate(70.836955,17.40927)" />
    <path
       sodipodi:type="arc"
       style="fill:#ffdd55;fill-opacity:1;stroke:none"
       id="path3089-4-6"
       sodipodi:cx="246.9823"
       sodipodi:cy="166.4584"
       sodipodi:rx="7.5761442"
       sodipodi:ry="7.5761442"
       d="m 254.55844,166.4584 a 7.5761442,7.5761442 0 1 1 -15.15228,0 7.5761442,7.5761442 0 1 1 15.15228,0 z"
       transform="translate(70.836955,-26.89531)" />
    <path
       sodipodi:type="arc"
       style="fill:#ffdd55;fill-opacity:1;stroke:none"
       id="path3089-8-1"
       sodipodi:cx="246.9823"
       sodipodi:cy="166.4584"
       sodipodi:rx="7.5761442"
       sodipodi:ry="7.5761442"
       d="m 254.55844,166.4584 a 7.5761442,7.5761442 0 1 1 -15.15228,0 7.5761442,7.5761442 0 1 1 15.15228,0 z"
       transform="translate(70.836955,-4.7430202)" />
    <path
       sodipodi:type="arc"
       style="fill:#ffdd55;fill-opacity:1;stroke:none"
       id="path3089-82-8"
       sodipodi:cx="246.9823"
       sodipodi:cy="166.4584"
       sodipodi:rx="7.5761442"
       sodipodi:ry="7.5761442"
       d="m 254.55844,166.4584 a 7.5761442,7.5761442 0 1 1 -15.15228,0 7.5761442,7.5761442 0 1 1 15.15228,0 z"
       transform="translate(92.989245,-26.89531)" />
    <path
       sodipodi:type="arc"
       style="fill:#ffdd55;fill-opacity:1;stroke:none"
       id="path3089-45-9"
       sodipodi:cx="246.9823"
       sodipodi:cy="166.4584"
       sodipodi:rx="7.5761442"
       sodipodi:ry="7.5761442"
       d="m 254.55844,166.4584 a 7.5761442,7.5761442 0 1 1 -15.15228,0 7.5761442,7.5761442 0 1 1 15.15228,0 z"
       transform="translate(92.989245,-4.7430202)" />
    <path
       sodipodi:type="arc"
       style="fill:#ffdd55;fill-opacity:1;stroke:none"
       id="path3089-5-2"
       sodipodi:cx="246.9823"
       sodipodi:cy="166.4584"
       sodipodi:rx="7.5761442"
       sodipodi:ry="7.5761442"
       d="m 254.55844,166.4584 a 7.5761442,7.5761442 0 1 1 -15.15228,0 7.5761442,7.5761442 0 1 1 15.15228,0 z"
       transform="translate(92.989245,17.40927)" />
    <path
       sodipodi:type="arc"
       style="fill:#ffdd55;fill-opacity:1;stroke:none"
       id="path3089-1-7"
       sodipodi:cx="246.9823"
       sodipodi:cy="166.4584"
       sodipodi:rx="7.5761442"
       sodipodi:ry="7.5761442"
       d="m 254.55844,166.4584 a 7.5761442,7.5761442 0 1 1 -15.15228,0 7.5761442,7.5761442 0 1 1 15.15228,0 z"
       transform="translate(115.14153,-26.89531)" />
    <path
       sodipodi:type="arc"
       style="fill:#ffdd55;fill-opacity:1;stroke:none"
       id="path3089-7-9"
       sodipodi:cx="246.9823"
       sodipodi:cy="166.4584"
       sodipodi:rx="7.5761442"
       sodipodi:ry="7.5761442"
       d="m 254.55844,166.4584 a 7.5761442,7.5761442 0 1 1 -15.15228,0 7.5761442,7.5761442 0 1 1 15.15228,0 z"
       transform="translate(115.14153,-4.7430202)" />
    <path
       sodipodi:type="arc"
       style="fill:#ffdd55;fill-opacity:1;stroke:none"
       id="path3089-11-5"
       sodipodi:cx="246.9823"
       sodipodi:cy="166.4584"
       sodipodi:rx="7.5761442"
       sodipodi:ry="7.5761442"
       d="m 254.55844,166.4584 a 7.5761442,7.5761442 0 1 1 -15.15228,0 7.5761442,7.5761442 0 1 1 15.15228,0 z"
       transform="translate(115.14153,17.40927)" />
    <g
       id="g3327"
       transform="translate(0.25253814,-4.5456865)">
      <rect
         y="130.47173"
         x="223.11745"
         height="68.942909"
         width="68.942917"
         id="rect3091-8-4"
         style="fill:#ffcc00;fill-opacity:1;stroke:none" />
      <path
         transform="translate(-14.576148,18.616751)"
         d="m 254.55844,166.4584 c 0,4.18419 -3.39195,7.57615 -7.57614,7.57615 -4.18419,0 -7.57614,-3.39196 -7.57614,-7.57615 0,-4.18418 3.39195,-7.57614 7.57614,-7.57614 4.18419,0 7.57614,3.39196 7.57614,7.57614 z"
         sodipodi:ry="7.5761442"
         sodipodi:rx="7.5761442"
         sodipodi:cy="166.4584"
         sodipodi:cx="246.9823"
         id="path3089-57-3"
         style="fill:#ffdd55;fill-opacity:1;stroke:none"
         sodipodi:type="arc" />
      <path
         transform="translate(-14.576148,-25.687829)"
         d="m 254.55844,166.4584 c 0,4.18419 -3.39195,7.57615 -7.57614,7.57615 -4.18419,0 -7.57614,-3.39196 -7.57614,-7.57615 0,-4.18418 3.39195,-7.57614 7.57614,-7.57614 4.18419,0 7.57614,3.39196 7.57614,7.57614 z"
         sodipodi:ry="7.5761442"
         sodipodi:rx="7.5761442"
         sodipodi:cy="166.4584"
         sodipodi:cx="246.9823"
         id="path3089-4-6-1"
         style="fill:#ffdd55;fill-opacity:1;stroke:none"
         sodipodi:type="arc" />
      <path
         transform="translate(-14.576148,-3.5355387)"
         d="m 254.55844,166.4584 c 0,4.18419 -3.39195,7.57615 -7.57614,7.57615 -4.18419,0 -7.57614,-3.39196 -7.57614,-7.57615 0,-4.18418 3.39195,-7.57614 7.57614,-7.57614 4.18419,0 7.57614,3.39196 7.57614,7.57614 z"
         sodipodi:ry="7.5761442"
         sodipodi:rx="7.5761442"
         sodipodi:cy="166.4584"
         sodipodi:cx="246.9823"
         id="path3089-8-1-2"
         style="fill:#ffdd55;fill-opacity:1;stroke:none"
         sodipodi:type="arc" />
      <path
         transform="translate(7.5761418,-25.687829)"
         d="m 254.55844,166.4584 c 0,4.18419 -3.39195,7.57615 -7.57614,7.57615 -4.18419,0 -7.57614,-3.39196 -7.57614,-7.57615 0,-4.18418 3.39195,-7.57614 7.57614,-7.57614 4.18419,0 7.57614,3.39196 7.57614,7.57614 z"
         sodipodi:ry="7.5761442"
         sodipodi:rx="7.5761442"
         sodipodi:cy="166.4584"
         sodipodi:cx="246.9823"
         id="path3089-82-8-3"
         style="fill:#ffdd55;fill-opacity:1;stroke:none"
         sodipodi:type="arc" />
      <path
         transform="translate(7.5761418,-3.5355387)"
         d="m 254.55844,166.4584 c 0,4.18419 -3.39195,7.57615 -7.57614,7.57615 -4.18419,0 -7.57614,-3.39196 -7.57614,-7.57615 0,-4.18418 3.39195,-7.57614 7.57614,-7.57614 4.18419,0 7.57614,3.39196 7.57614,7.57614 z"
         sodipodi:ry="7.5761442"
         sodipodi:rx="7.5761442"
         sodipodi:cy="166.4584"
         sodipodi:cx="246.9823"
         id="path3089-45-9-3"
         style="fill:#ffdd55;fill-opacity:1;stroke:none"
         sodipodi:type="arc" />
      <path
         transform="translate(7.5761418,18.616751)"
         d="m 254.55844,166.4584 c 0,4.18419 -3.39195,7.57615 -7.57614,7.57615 -4.18419,0 -7.57614,-3.39196 -7.57614,-7.57615 0,-4.18418 3.39195,-7.57614 7.57614,-7.57614 4.18419,0 7.57614,3.39196 7.57614,7.57614 z"
         sodipodi:ry="7.5761442"
         sodipodi:rx="7.5761442"
         sodipodi:cy="166.4584"
         sodipodi:cx="246.9823"
         id="path3089-5-2-4"
         style="fill:#ffdd55;fill-opacity:1;stroke:none"
         sodipodi:type="arc" />
      <path
         transform="translate(29.728432,-25.687829)"
         d="m 254.55844,166.4584 c 0,4.18419 -3.39195,7.57615 -7.57614,7.57615 -4.18419,0 -7.57614,-3.39196 -7.57614,-7.57615 0,-4.18418 3.39195,-7.57614 7.57614,-7.57614 4.18419,0 7.57614,3.39196 7.57614,7.57614 z"
         sodipodi:ry="7.5761442"
         sodipodi:rx="7.5761442"
         sodipodi:cy="166.4584"
         sodipodi:cx="246.9823"
         id="path3089-1-7-1"
         style="fill:#ffdd55;fill-opacity:1;stroke:none"
         sodipodi:type="arc" />
      <path
         transform="translate(29.728432,-3.5355387)"
         d="m 254.55844,166.4584 c 0,4.18419 -3.39195,7.57615 -7.57614,7.57615 -4.18419,0 -7.57614,-3.39196 -7.57614,-7.57615 0,-4.18418 3.39195,-7.57614 7.57614,-7.57614 4.18419,0 7.57614,3.39196 7.57614,7.57614 z"
         sodipodi:ry="7.5761442"
         sodipodi:rx="7.5761442"
         sodipodi:cy="166.4584"
         sodipodi:cx="246.9823"
         id="path3089-7-9-1"
         style="fill:#ffdd55;fill-opacity:1;stroke:none"
         sodipodi:type="arc" />
      <path
         transform="translate(29.728432,18.616751)"
         d="m 254.55844,166.4584 c 0,4.18419 -3.39195,7.57615 -7.57614,7.57615 -4.18419,0 -7.57614,-3.39196 -7.57614,-7.57615 0,-4.18418 3.39195,-7.57614 7.57614,-7.57614 4.18419,0 7.57614,3.39196 7.57614,7.57614 z"
         sodipodi:ry="7.5761442"
         sodipodi:rx="7.5761442"
         sodipodi:cy="166.4584"
         sodipodi:cx="246.9823"
         id="path3089-11-5-3"
         style="fill:#ffdd55;fill-opacity:1;stroke:none"
         sodipodi:type="arc" />
      <path
         id="rect3091"
         d="m 221.46875,129.09375 0,71.96875 71.96875,0 0,-71.96875 -71.96875,0 z m 13.90625,6.0625 c 4.18419,0 7.5625,3.37831 7.5625,7.5625 0,4.18419 -3.37831,7.5625 -7.5625,7.5625 -4.18419,0 -7.59375,-3.37831 -7.59375,-7.5625 0,-4.18419 3.40956,-7.5625 7.59375,-7.5625 z m 22.15625,0 c 4.18419,0 7.5625,3.37831 7.5625,7.5625 0,4.18419 -3.37831,7.5625 -7.5625,7.5625 -4.18419,0 -7.59375,-3.37831 -7.59375,-7.5625 0,-4.18419 3.40956,-7.5625 7.59375,-7.5625 z m 22.125,0 c 4.18419,0 7.59375,3.37831 7.59375,7.5625 0,4.18419 -3.40956,7.5625 -7.59375,7.5625 -4.18419,0 -7.5625,-3.37831 -7.5625,-7.5625 0,-4.18419 3.37831,-7.5625 7.5625,-7.5625 z m -44.28125,22.125 c 4.18419,0 7.5625,3.40956 7.5625,7.59375 0,4.18419 -3.37831,7.5625 -7.5625,7.5625 -4.18419,0 -7.59375,-3.37831 -7.59375,-7.5625 0,-4.18419 3.40956,-7.59375 7.59375,-7.59375 z m 22.15625,0 c 4.18419,0 7.5625,3.40956 7.5625,7.59375 0,4.18419 -3.37831,7.5625 -7.5625,7.5625 -4.18419,0 -7.59375,-3.37831 -7.59375,-7.5625 0,-4.18419 3.40956,-7.59375 7.59375,-7.59375 z m 22.125,0 c 4.18419,0 7.59375,3.40956 7.59375,7.59375 0,4.18419 -3.40956,7.5625 -7.59375,7.5625 -4.18419,0 -7.5625,-3.37831 -7.5625,-7.5625 0,-4.18419 3.37831,-7.59375 7.5625,-7.59375 z M 235.375,179.4375 c 4.18419,0 7.5625,3.40956 7.5625,7.59375 0,4.18419 -3.37831,7.5625 -7.5625,7.5625 -4.18419,0 -7.59375,-3.37831 -7.59375,-7.5625 0,-4.18419 3.40956,-7.59375 7.59375,-7.59375 z m 22.15625,0 c 4.18419,0 7.5625,3.40956 7.5625,7.59375 0,4.18419 -3.37831,7.5625 -7.5625,7.5625 -4.18419,0 -7.59375,-3.37831 -7.59375,-7.5625 0,-4.18419 3.40956,-7.59375 7.59375,-7.59375 z m 22.125,0 c 4.18419,0 7.59375,3.40956 7.59375,7.59375 0,4.18419 -3.40956,7.5625 -7.59375,7.5625 -4.18419,0 -7.5625,-3.37831 -7.5625,-7.5625 0,-4.18419 3.37831,-7.59375 7.5625,-7.59375 z"
         style="fill:#00ff00;fill-opacity:1;stroke:none"
         inkscape:connector-curvature="0" />
    </g>
    <rect
       style="fill:#ffcc00;fill-opacity:1;stroke:none"
       id="rect3091-8-4-7"
       width="65.55603"
       height="65.082436"
       x="251.78038"
       y="209.40561"
       transform="matrix(1,0,-0.5,0.8660254,0,0)" />
    <path
       sodipodi:type="arc"
       style="fill:#ffdd55;fill-opacity:1;stroke:none"
       id="path3089-57-3-4"
       sodipodi:cx="246.9823"
       sodipodi:cy="166.4584"
       sodipodi:rx="7.5761442"
       sodipodi:ry="7.5761442"
       d="m 254.55844,166.4584 a 7.5761442,7.5761442 0 1 1 -15.15228,0 7.5761442,7.5761442 0 1 1 15.15228,0 z"
       transform="matrix(0.95087404,0,-0.47200241,0.81753215,-26.143276,89.905538)" />
    <path
       sodipodi:type="arc"
       style="fill:#ffdd55;fill-opacity:1;stroke:none"
       id="path3089-4-6-1-2"
       sodipodi:cx="246.9823"
       sodipodi:cy="166.4584"
       sodipodi:rx="7.5761442"
       sodipodi:ry="7.5761442"
       d="m 254.55844,166.4584 a 7.5761442,7.5761442 0 1 1 -15.15228,0 7.5761442,7.5761442 0 1 1 15.15228,0 z"
       transform="matrix(0.95087404,0,-0.47200241,0.81753215,-5.2314079,53.68512)" />
    <path
       sodipodi:type="arc"
       style="fill:#ffdd55;fill-opacity:1;stroke:none"
       id="path3089-8-1-2-7"
       sodipodi:cx="246.9823"
       sodipodi:cy="166.4584"
       sodipodi:rx="7.5761442"
       sodipodi:ry="7.5761442"
       d="m 254.55844,166.4584 a 7.5761442,7.5761442 0 1 1 -15.15228,0 7.5761442,7.5761442 0 1 1 15.15228,0 z"
       transform="matrix(0.95087404,0,-0.47200241,0.81753215,-15.687342,71.795329)" />
    <path
       sodipodi:type="arc"
       style="fill:#ffdd55;fill-opacity:1;stroke:none"
       id="path3089-82-8-3-7"
       sodipodi:cx="246.9823"
       sodipodi:cy="166.4584"
       sodipodi:rx="7.5761442"
       sodipodi:ry="7.5761442"
       d="m 254.55844,166.4584 a 7.5761442,7.5761442 0 1 1 -15.15228,0 7.5761442,7.5761442 0 1 1 15.15228,0 z"
       transform="matrix(0.95087404,0,-0.47200241,0.81753215,15.832629,53.68512)" />
    <path
       sodipodi:type="arc"
       style="fill:#ffdd55;fill-opacity:1;stroke:none"
       id="path3089-45-9-3-9"
       sodipodi:cx="246.9823"
       sodipodi:cy="166.4584"
       sodipodi:rx="7.5761442"
       sodipodi:ry="7.5761442"
       d="m 254.55844,166.4584 a 7.5761442,7.5761442 0 1 1 -15.15228,0 7.5761442,7.5761442 0 1 1 15.15228,0 z"
       transform="matrix(0.95087404,0,-0.47200241,0.81753215,5.3766949,71.795329)" />
    <path
       sodipodi:type="arc"
       style="fill:#ffdd55;fill-opacity:1;stroke:none"
       id="path3089-5-2-4-3"
       sodipodi:cx="246.9823"
       sodipodi:cy="166.4584"
       sodipodi:rx="7.5761442"
       sodipodi:ry="7.5761442"
       d="m 254.55844,166.4584 a 7.5761442,7.5761442 0 1 1 -15.15228,0 7.5761442,7.5761442 0 1 1 15.15228,0 z"
       transform="matrix(0.95087404,0,-0.47200241,0.81753215,-5.0792392,89.905538)" />
    <path
       sodipodi:type="arc"
       style="fill:#ffdd55;fill-opacity:1;stroke:none"
       id="path3089-1-7-1-1"
       sodipodi:cx="246.9823"
       sodipodi:cy="166.4584"
       sodipodi:rx="7.5761442"
       sodipodi:ry="7.5761442"
       d="m 254.55844,166.4584 a 7.5761442,7.5761442 0 1 1 -15.15228,0 7.5761442,7.5761442 0 1 1 15.15228,0 z"
       transform="matrix(0.95087404,0,-0.47200241,0.81753215,36.896667,53.68512)" />
    <path
       sodipodi:type="arc"
       style="fill:#ffdd55;fill-opacity:1;stroke:none"
       id="path3089-7-9-1-9"
       sodipodi:cx="246.9823"
       sodipodi:cy="166.4584"
       sodipodi:rx="7.5761442"
       sodipodi:ry="7.5761442"
       d="m 254.55844,166.4584 a 7.5761442,7.5761442 0 1 1 -15.15228,0 7.5761442,7.5761442 0 1 1 15.15228,0 z"
       transform="matrix(0.95087404,0,-0.47200241,0.81753215,26.440733,71.795329)" />
    <path
       sodipodi:type="arc"
       style="fill:#ffdd55;fill-opacity:1;stroke:none"
       id="path3089-11-5-3-8"
       sodipodi:cx="246.9823"
       sodipodi:cy="166.4584"
       sodipodi:rx="7.5761442"
       sodipodi:ry="7.5761442"
       d="m 254.55844,166.4584 a 7.5761442,7.5761442 0 1 1 -15.15228,0 7.5761442,7.5761442 0 1 1 15.15228,0 z"
       transform="matrix(0.95087404,0,-0.47200241,0.81753215,15.984799,89.905538)" />
    <path
       style="fill:#800000;fill-opacity:1;stroke:none"
       d="m 146.16028,180.22404 -33.96942,58.83676 68.43321,0 33.96943,-58.83676 -68.43322,0 z m 10.36158,4.95629 c 3.97863,0 5.59641,2.76187 3.62146,6.18258 -1.97494,3.42071 -6.78186,6.18259 -10.7605,6.18259 -3.97864,0 -5.62613,-2.76188 -3.65118,-6.18259 1.97495,-3.42071 6.81158,-6.18258 10.79022,-6.18258 z m 21.0678,0 c 3.97864,0 5.59641,2.76187 3.62147,6.18258 -1.97495,3.42071 -6.78187,6.18259 -10.76051,6.18259 -3.97863,0 -5.62613,-2.76188 -3.65118,-6.18259 1.97495,-3.42071 6.81158,-6.18258 10.79022,-6.18258 z m 21.03809,0 c 3.97864,0 5.62613,2.76187 3.65118,6.18258 -1.97495,3.42071 -6.81158,6.18259 -10.79022,6.18259 -3.97864,0 -5.59641,-2.76188 -3.62147,-6.18259 1.97495,-3.42071 6.78187,-6.18258 10.76051,-6.18258 z m -52.54895,18.08789 c 3.97864,0 5.58167,2.78743 3.60672,6.20814 -1.97495,3.42071 -6.78187,6.18259 -10.7605,6.18259 -3.97864,0 -5.62613,-2.76188 -3.65118,-6.18259 1.97494,-3.42071 6.82633,-6.20814 10.80496,-6.20814 z m 21.06781,0 c 3.97863,0 5.58166,2.78743 3.60671,6.20814 -1.97494,3.42071 -6.78186,6.18259 -10.7605,6.18259 -3.97864,0 -5.62613,-2.76188 -3.65118,-6.18259 1.97495,-3.42071 6.82633,-6.20814 10.80497,-6.20814 z m 21.03808,0 c 3.97864,0 5.61138,2.78743 3.63644,6.20814 -1.97495,3.42071 -6.81158,6.18259 -10.79022,6.18259 -3.97864,0 -5.59642,-2.76188 -3.62147,-6.18259 1.97495,-3.42071 6.79662,-6.20814 10.77525,-6.20814 z M 135.621,221.38167 c 3.97864,0 5.58166,2.78743 3.60672,6.20814 -1.97495,3.42071 -6.78187,6.18258 -10.76051,6.18258 -3.97863,0 -5.62613,-2.76187 -3.65118,-6.18258 1.97495,-3.42071 6.82633,-6.20814 10.80497,-6.20814 z m 21.0678,0 c 3.97864,0 5.58167,2.78743 3.60672,6.20814 -1.97495,3.42071 -6.78187,6.18258 -10.7605,6.18258 -3.97864,0 -5.62613,-2.76187 -3.65118,-6.18258 1.97494,-3.42071 6.82633,-6.20814 10.80496,-6.20814 z m 21.03809,0 c 3.97864,0 5.61138,2.78743 3.63643,6.20814 -1.97494,3.42071 -6.81158,6.18258 -10.79022,6.18258 -3.97863,0 -5.59641,-2.76187 -3.62146,-6.18258 1.97495,-3.42071 6.79661,-6.20814 10.77525,-6.20814 z"
       id="rect3091-6"
       inkscape:connector-curvature="0" />
    <rect
       style="fill:#ffcc00;fill-opacity:1;stroke:none"
       id="rect3091-8-4-0"
       width="64.803101"
       height="64.588341"
       x="-205.67494"
       y="44.271076"
       transform="matrix(-0.5,-0.86602541,1,0,0,0)" />
    <path
       sodipodi:type="arc"
       style="fill:#ffdd55;fill-opacity:1;stroke:none"
       id="path3089-57-3-2"
       sodipodi:cx="246.9823"
       sodipodi:cy="166.4584"
       sodipodi:rx="7.5761442"
       sodipodi:ry="7.5761442"
       d="m 254.55844,166.4584 a 7.5761442,7.5761442 0 1 1 -15.15228,0 7.5761442,7.5761442 0 1 1 15.15228,0 z"
       transform="matrix(-0.46997648,-0.81402315,0.93683805,0,154.02895,371.60781)" />
    <path
       sodipodi:type="arc"
       style="fill:#ffdd55;fill-opacity:1;stroke:none"
       id="path3089-4-6-1-8"
       sodipodi:cx="246.9823"
       sodipodi:cy="166.4584"
       sodipodi:rx="7.5761442"
       sodipodi:ry="7.5761442"
       d="m 254.55844,166.4584 a 7.5761442,7.5761442 0 1 1 -15.15228,0 7.5761442,7.5761442 0 1 1 15.15228,0 z"
       transform="matrix(-0.46997648,-0.81402315,0.93683805,0,112.52273,371.60781)" />
    <path
       sodipodi:type="arc"
       style="fill:#ffdd55;fill-opacity:1;stroke:none"
       id="path3089-8-1-2-6"
       sodipodi:cx="246.9823"
       sodipodi:cy="166.4584"
       sodipodi:rx="7.5761442"
       sodipodi:ry="7.5761442"
       d="m 254.55844,166.4584 a 7.5761442,7.5761442 0 1 1 -15.15228,0 7.5761442,7.5761442 0 1 1 15.15228,0 z"
       transform="matrix(-0.46997648,-0.81402315,0.93683805,0,133.27584,371.60781)" />
    <path
       sodipodi:type="arc"
       style="fill:#ffdd55;fill-opacity:1;stroke:none"
       id="path3089-82-8-3-0"
       sodipodi:cx="246.9823"
       sodipodi:cy="166.4584"
       sodipodi:rx="7.5761442"
       sodipodi:ry="7.5761442"
       d="m 254.55844,166.4584 a 7.5761442,7.5761442 0 1 1 -15.15228,0 7.5761442,7.5761442 0 1 1 15.15228,0 z"
       transform="matrix(-0.46997648,-0.81402315,0.93683805,0,102.11168,353.57534)" />
    <path
       sodipodi:type="arc"
       style="fill:#ffdd55;fill-opacity:1;stroke:none"
       id="path3089-45-9-3-2"
       sodipodi:cx="246.9823"
       sodipodi:cy="166.4584"
       sodipodi:rx="7.5761442"
       sodipodi:ry="7.5761442"
       d="m 254.55844,166.4584 a 7.5761442,7.5761442 0 1 1 -15.15228,0 7.5761442,7.5761442 0 1 1 15.15228,0 z"
       transform="matrix(-0.46997648,-0.81402315,0.93683805,0,122.86478,353.57534)" />
    <path
       sodipodi:type="arc"
       style="fill:#ffdd55;fill-opacity:1;stroke:none"
       id="path3089-5-2-4-4"
       sodipodi:cx="246.9823"
       sodipodi:cy="166.4584"
       sodipodi:rx="7.5761442"
       sodipodi:ry="7.5761442"
       d="m 254.55844,166.4584 a 7.5761442,7.5761442 0 1 1 -15.15228,0 7.5761442,7.5761442 0 1 1 15.15228,0 z"
       transform="matrix(-0.46997648,-0.81402315,0.93683805,0,143.61789,353.57534)" />
    <path
       sodipodi:type="arc"
       style="fill:#ffdd55;fill-opacity:1;stroke:none"
       id="path3089-1-7-1-8"
       sodipodi:cx="246.9823"
       sodipodi:cy="166.4584"
       sodipodi:rx="7.5761442"
       sodipodi:ry="7.5761442"
       d="m 254.55844,166.4584 a 7.5761442,7.5761442 0 1 1 -15.15228,0 7.5761442,7.5761442 0 1 1 15.15228,0 z"
       transform="matrix(-0.46997648,-0.81402315,0.93683805,0,91.700621,335.54286)" />
    <path
       sodipodi:type="arc"
       style="fill:#ffdd55;fill-opacity:1;stroke:none"
       id="path3089-7-9-1-6"
       sodipodi:cx="246.9823"
       sodipodi:cy="166.4584"
       sodipodi:rx="7.5761442"
       sodipodi:ry="7.5761442"
       d="m 254.55844,166.4584 a 7.5761442,7.5761442 0 1 1 -15.15228,0 7.5761442,7.5761442 0 1 1 15.15228,0 z"
       transform="matrix(-0.46997648,-0.81402315,0.93683805,0,112.45373,335.54286)" />
    <path
       sodipodi:type="arc"
       style="fill:#ffdd55;fill-opacity:1;stroke:none"
       id="path3089-11-5-3-5"
       sodipodi:cx="246.9823"
       sodipodi:cy="166.4584"
       sodipodi:rx="7.5761442"
       sodipodi:ry="7.5761442"
       d="m 254.55844,166.4584 a 7.5761442,7.5761442 0 1 1 -15.15228,0 7.5761442,7.5761442 0 1 1 15.15228,0 z"
       transform="matrix(-0.46997648,-0.81402315,0.93683805,0,133.20684,335.54286)" />
    <path
       inkscape:connector-curvature="0"
       style="fill:#ff0000;fill-opacity:1;stroke:none"
       d="m 146.59245,179.4618 67.42307,0 -33.82362,-58.58423 -67.42307,0 33.82362,58.58423 z m -0.85603,-11.32001 c -1.96647,-3.40603 -0.38926,-6.15605 3.53064,-6.15605 3.91991,0 8.67257,2.75002 10.63904,6.15605 1.96647,3.40603 0.40395,6.18149 -3.51595,6.18149 -3.91991,0 -8.68726,-2.77546 -10.65373,-6.18149 z m -10.41291,-18.0357 c -1.96647,-3.40603 -0.38927,-6.15605 3.53064,-6.15605 3.91991,0 8.67256,2.75002 10.63903,6.15605 1.96647,3.40603 0.40396,6.18149 -3.51595,6.18149 -3.91991,0 -8.68725,-2.77546 -10.65372,-6.18149 z m -10.39823,-18.01026 c -1.96647,-3.40603 -0.40396,-6.18149 3.51595,-6.18149 3.91991,0 8.68725,2.77546 10.65372,6.18149 1.96647,3.40603 0.38927,6.15605 -3.53064,6.15605 -3.91991,0 -8.67256,-2.75002 -10.63903,-6.15605 z m 41.53869,36.04596 c -1.96648,-3.40603 -0.36,-6.15605 3.55991,-6.15605 3.91991,0 8.67257,2.75002 10.63904,6.15605 1.96647,3.40603 0.40395,6.18149 -3.51596,6.18149 -3.9199,0 -8.71652,-2.77546 -10.68299,-6.18149 z m -10.41292,-18.0357 c -1.96647,-3.40603 -0.35999,-6.15605 3.55992,-6.15605 3.9199,0 8.67256,2.75002 10.63903,6.15605 1.96647,3.40603 0.40396,6.18149 -3.51595,6.18149 -3.91991,0 -8.71653,-2.77546 -10.683,-6.18149 z m -10.39823,-18.01026 c -1.96647,-3.40603 -0.37468,-6.18149 3.54523,-6.18149 3.91991,0 8.68725,2.77546 10.65372,6.18149 1.96647,3.40603 0.38927,6.15605 -3.53064,6.15605 -3.91991,0 -8.70184,-2.75002 -10.66831,-6.15605 z m 41.56796,36.04596 c -1.96647,-3.40603 -0.35999,-6.15605 3.55992,-6.15605 3.91991,0 8.67256,2.75002 10.63904,6.15605 1.96647,3.40603 0.40395,6.18149 -3.51596,6.18149 -3.91991,0 -8.71653,-2.77546 -10.683,-6.18149 z m -10.41291,-18.0357 c -1.96647,-3.40603 -0.35999,-6.15605 3.55991,-6.15605 3.91991,0 8.67257,2.75002 10.63904,6.15605 1.96647,3.40603 0.40395,6.18149 -3.51595,6.18149 -3.91991,0 -8.71653,-2.77546 -10.683,-6.18149 z m -10.39823,-18.01026 c -1.96647,-3.40603 -0.37468,-6.18149 3.54523,-6.18149 3.91991,0 8.68725,2.77546 10.65372,6.18149 1.96647,3.40603 0.38927,6.15605 -3.53064,6.15605 -3.91991,0 -8.70184,-2.75002 -10.66831,-6.15605 z"
       id="rect3091-0" />
    <rect
       style="fill:#ffcc00;fill-opacity:1;stroke:none"
       id="rect3091-8-4-00"
       width="65.31411"
       height="65.082436"
       x="-40.298389"
       y="-248.3949"
       transform="matrix(-0.5,0.8660254,-0.5,-0.8660254,0,0)" />
    <path
       sodipodi:type="arc"
       style="fill:#ffdd55;fill-opacity:1;stroke:none"
       id="path3089-57-3-6"
       sodipodi:cx="246.9823"
       sodipodi:cy="166.4584"
       sodipodi:rx="7.5761442"
       sodipodi:ry="7.5761442"
       d="m 254.55844,166.4584 a 7.5761442,7.5761442 0 1 1 -15.15228,0 7.5761442,7.5761442 0 1 1 15.15228,0 z"
       transform="matrix(-0.47368252,0.82044219,-0.47200241,-0.81753215,309.73377,76.648051)" />
    <path
       sodipodi:type="arc"
       style="fill:#ffdd55;fill-opacity:1;stroke:none"
       id="path3089-4-6-1-1"
       sodipodi:cx="246.9823"
       sodipodi:cy="166.4584"
       sodipodi:rx="7.5761442"
       sodipodi:ry="7.5761442"
       d="m 254.55844,166.4584 a 7.5761442,7.5761442 0 1 1 -15.15228,0 7.5761442,7.5761442 0 1 1 15.15228,0 z"
       transform="matrix(-0.47368252,0.82044219,-0.47200241,-0.81753215,330.64563,112.86847)" />
    <path
       sodipodi:type="arc"
       style="fill:#ffdd55;fill-opacity:1;stroke:none"
       id="path3089-8-1-2-3"
       sodipodi:cx="246.9823"
       sodipodi:cy="166.4584"
       sodipodi:rx="7.5761442"
       sodipodi:ry="7.5761442"
       d="m 254.55844,166.4584 a 7.5761442,7.5761442 0 1 1 -15.15228,0 7.5761442,7.5761442 0 1 1 15.15228,0 z"
       transform="matrix(-0.47368252,0.82044219,-0.47200241,-0.81753215,320.1897,94.75826)" />
    <path
       sodipodi:type="arc"
       style="fill:#ffdd55;fill-opacity:1;stroke:none"
       id="path3089-82-8-3-8"
       sodipodi:cx="246.9823"
       sodipodi:cy="166.4584"
       sodipodi:rx="7.5761442"
       sodipodi:ry="7.5761442"
       d="m 254.55844,166.4584 a 7.5761442,7.5761442 0 1 1 -15.15228,0 7.5761442,7.5761442 0 1 1 15.15228,0 z"
       transform="matrix(-0.47368252,0.82044219,-0.47200241,-0.81753215,320.15248,131.04314)" />
    <path
       sodipodi:type="arc"
       style="fill:#ffdd55;fill-opacity:1;stroke:none"
       id="path3089-45-9-3-93"
       sodipodi:cx="246.9823"
       sodipodi:cy="166.4584"
       sodipodi:rx="7.5761442"
       sodipodi:ry="7.5761442"
       d="m 254.55844,166.4584 a 7.5761442,7.5761442 0 1 1 -15.15228,0 7.5761442,7.5761442 0 1 1 15.15228,0 z"
       transform="matrix(-0.47368252,0.82044219,-0.47200241,-0.81753215,309.69655,112.93293)" />
    <path
       sodipodi:type="arc"
       style="fill:#ffdd55;fill-opacity:1;stroke:none"
       id="path3089-5-2-4-44"
       sodipodi:cx="246.9823"
       sodipodi:cy="166.4584"
       sodipodi:rx="7.5761442"
       sodipodi:ry="7.5761442"
       d="m 254.55844,166.4584 a 7.5761442,7.5761442 0 1 1 -15.15228,0 7.5761442,7.5761442 0 1 1 15.15228,0 z"
       transform="matrix(-0.47368252,0.82044219,-0.47200241,-0.81753215,299.24061,94.822724)" />
    <path
       sodipodi:type="arc"
       style="fill:#ffdd55;fill-opacity:1;stroke:none"
       id="path3089-1-7-1-6"
       sodipodi:cx="246.9823"
       sodipodi:cy="166.4584"
       sodipodi:rx="7.5761442"
       sodipodi:ry="7.5761442"
       d="m 254.55844,166.4584 a 7.5761442,7.5761442 0 1 1 -15.15228,0 7.5761442,7.5761442 0 1 1 15.15228,0 z"
       transform="matrix(-0.47368252,0.82044219,-0.47200241,-0.81753215,309.65933,149.21782)" />
    <path
       sodipodi:type="arc"
       style="fill:#ffdd55;fill-opacity:1;stroke:none"
       id="path3089-7-9-1-0"
       sodipodi:cx="246.9823"
       sodipodi:cy="166.4584"
       sodipodi:rx="7.5761442"
       sodipodi:ry="7.5761442"
       d="m 254.55844,166.4584 a 7.5761442,7.5761442 0 1 1 -15.15228,0 7.5761442,7.5761442 0 1 1 15.15228,0 z"
       transform="matrix(-0.47368252,0.82044219,-0.47200241,-0.81753215,299.20339,131.10761)" />
    <path
       sodipodi:type="arc"
       style="fill:#ffdd55;fill-opacity:1;stroke:none"
       id="path3089-11-5-3-6"
       sodipodi:cx="246.9823"
       sodipodi:cy="166.4584"
       sodipodi:rx="7.5761442"
       sodipodi:ry="7.5761442"
       d="m 254.55844,166.4584 a 7.5761442,7.5761442 0 1 1 -15.15228,0 7.5761442,7.5761442 0 1 1 15.15228,0 z"
       transform="matrix(-0.47368252,0.82044219,-0.47200241,-0.81753215,288.74746,112.9974)" />
    <path
       inkscape:connector-curvature="0"
       style="fill:#d40000;fill-opacity:1;stroke:none"
       d="m 145.77801,179.99075 -33.96942,-58.83677 -34.090339,59.0462 33.969419,58.83676 34.09034,-59.04619 z m -9.44866,6.45298 c -1.98198,3.43289 -5.17679,3.44272 -7.15174,0.022 -1.97495,-3.42071 -1.96927,-8.9543 0.0127,-12.38718 1.98198,-3.43289 5.1916,-3.46836 7.16655,-0.0477 1.97495,3.42071 1.95447,8.97993 -0.0275,12.41282 z m -10.49503,18.17792 c -1.98197,3.43289 -5.17679,3.44272 -7.15174,0.022 -1.97495,-3.42071 -1.96927,-8.95429 0.0127,-12.38718 1.98197,-3.43289 5.19159,-3.46836 7.16654,-0.0477 1.97495,3.42071 1.95447,8.97994 -0.0275,12.41282 z m -10.48022,18.15229 c -1.98198,3.43288 -5.1916,3.46835 -7.16655,0.0476 -1.97495,-3.42071 -1.95447,-8.97993 0.0275,-12.41282 1.98198,-3.43288 5.1768,-3.44271 7.15174,-0.022 1.97495,3.42071 1.96927,8.95429 -0.0127,12.38718 z m 10.5322,-54.41811 c -1.98198,3.43289 -5.19155,3.41717 -7.16649,-0.004 -1.97495,-3.42071 -1.96928,-8.95429 0.0127,-12.38718 1.98198,-3.43289 5.1916,-3.46836 7.16655,-0.0477 1.97494,3.42071 1.96922,9.00549 -0.0128,12.43837 z m -10.49503,18.17792 c -1.98198,3.43289 -5.19155,3.41717 -7.16649,-0.004 -1.97495,-3.42071 -1.96927,-8.95429 0.0127,-12.38718 1.98198,-3.43288 5.1916,-3.46835 7.16655,-0.0476 1.97495,3.42071 1.96922,9.00548 -0.0128,12.43836 z m -10.48023,18.15229 c -1.98197,3.43288 -5.206343,3.44281 -7.181291,0.0221 -1.974948,-3.42071 -1.954469,-8.97994 0.02751,-12.41282 1.981978,-3.43289 5.176793,-3.44272 7.151743,-0.022 1.97495,3.42071 1.98402,8.97984 0.002,12.41273 z m 10.51745,-54.44365 c -1.98197,3.43288 -5.19154,3.41716 -7.16649,-0.004 -1.97495,-3.42071 -1.96927,-8.95429 0.0127,-12.38718 1.98198,-3.43288 5.19159,-3.46835 7.16654,-0.0476 1.97495,3.42071 1.96922,9.00548 -0.0128,12.43837 z m -10.49502,18.17792 c -1.98198,3.43288 -5.191549,3.41717 -7.166496,-0.004 -1.974948,-3.42071 -1.969272,-8.9543 0.01271,-12.38718 1.981977,-3.43289 5.1916,-3.46836 7.16654,-0.0477 1.97495,3.42071 1.96922,9.00548 -0.0127,12.43837 z m -10.48023,18.15228 c -1.981977,3.43289 -5.206347,3.44281 -7.181295,0.0221 -1.974947,-3.42071 -1.954469,-8.97993 0.02751,-12.41282 1.981977,-3.43289 5.176794,-3.44272 7.151742,-0.022 1.974948,3.42071 1.984022,8.97985 0.002,12.41273 z"
       id="rect3091-61" />
    <path
       inkscape:connector-curvature="0"
       style="fill:#d40000;fill-opacity:1;stroke:none"
       d="m 113.95647,278.61547 -34.124998,59.09375 34.124998,59.09375 34.125,-59.09375 -34.125,-59.09375 z"
       id="path3003-8" />
    <path
       inkscape:connector-curvature="0"
       style="fill:#ff5555;fill-opacity:1;stroke:none"
       d="m 113.92522,278.61547 34.09375,59.03125 -0.125,0.1875 68.25,0 -34.09375,-59.03125 0.125,-0.1875 -68.25,0 z"
       id="path3003-1-7-4" />
    <path
       inkscape:connector-curvature="0"
       style="fill:#800000;fill-opacity:1;stroke:none"
       d="m 148.05022,337.58422 -34.125,59.09375 68.1875,0 0.0937,0.1875 34.125,-59.09375 -68.1875,0 -0.0937,-0.1875 z"
       id="path3003-1-7-0-9" />
    <rect
       style="fill:#aa8800;fill-opacity:1;stroke:none"
       id="rect3091-8-4-7-6"
       width="65.55603"
       height="65.082436"
       x="344.61118"
       y="391.4043"
       transform="matrix(1,0,-0.5,0.8660254,0,0)" />
    <path
       sodipodi:type="arc"
       style="fill:#d4aa00;fill-opacity:1;stroke:none"
       id="path3089-57-3-4-3"
       sodipodi:cx="246.9823"
       sodipodi:cy="166.4584"
       sodipodi:rx="7.5761442"
       sodipodi:ry="7.5761442"
       d="m 254.55844,166.4584 a 7.5761442,7.5761442 0 1 1 -15.15228,0 7.5761442,7.5761442 0 1 1 15.15228,0 z"
       transform="matrix(0.95087404,0,-0.47200241,0.81753215,-24.311807,247.52101)" />
    <path
       sodipodi:type="arc"
       style="fill:#d4aa00;fill-opacity:1;stroke:none"
       id="path3089-4-6-1-2-7"
       sodipodi:cx="246.9823"
       sodipodi:cy="166.4584"
       sodipodi:rx="7.5761442"
       sodipodi:ry="7.5761442"
       d="m 254.55844,166.4584 a 7.5761442,7.5761442 0 1 1 -15.15228,0 7.5761442,7.5761442 0 1 1 15.15228,0 z"
       transform="matrix(0.95087404,0,-0.47200241,0.81753215,-3.399936,211.30059)" />
    <path
       sodipodi:type="arc"
       style="fill:#ffdd55;fill-opacity:1;stroke:none"
       id="path3089-8-1-2-7-8"
       sodipodi:cx="246.9823"
       sodipodi:cy="166.4584"
       sodipodi:rx="7.5761442"
       sodipodi:ry="7.5761442"
       d="m 254.55844,166.4584 a 7.5761442,7.5761442 0 1 1 -15.15228,0 7.5761442,7.5761442 0 1 1 15.15228,0 z"
       transform="matrix(0.95087404,0,-0.47200241,0.81753215,-13.85587,229.4108)" />
    <path
       sodipodi:type="arc"
       style="fill:#ffdd55;fill-opacity:1;stroke:none"
       id="path3089-82-8-3-7-8"
       sodipodi:cx="246.9823"
       sodipodi:cy="166.4584"
       sodipodi:rx="7.5761442"
       sodipodi:ry="7.5761442"
       d="m 254.55844,166.4584 a 7.5761442,7.5761442 0 1 1 -15.15228,0 7.5761442,7.5761442 0 1 1 15.15228,0 z"
       transform="matrix(0.95087404,0,-0.47200241,0.81753215,17.664101,211.30059)" />
    <path
       sodipodi:type="arc"
       style="fill:#d4aa00;fill-opacity:1;stroke:none"
       id="path3089-45-9-3-9-2"
       sodipodi:cx="246.9823"
       sodipodi:cy="166.4584"
       sodipodi:rx="7.5761442"
       sodipodi:ry="7.5761442"
       d="m 254.55844,166.4584 a 7.5761442,7.5761442 0 1 1 -15.15228,0 7.5761442,7.5761442 0 1 1 15.15228,0 z"
       transform="matrix(0.95087404,0,-0.47200241,0.81753215,7.208167,229.4108)" />
    <path
       sodipodi:type="arc"
       style="fill:#ffdd55;fill-opacity:1;stroke:none"
       id="path3089-5-2-4-3-9"
       sodipodi:cx="246.9823"
       sodipodi:cy="166.4584"
       sodipodi:rx="7.5761442"
       sodipodi:ry="7.5761442"
       d="m 254.55844,166.4584 a 7.5761442,7.5761442 0 1 1 -15.15228,0 7.5761442,7.5761442 0 1 1 15.15228,0 z"
       transform="matrix(0.95087404,0,-0.47200241,0.81753215,-3.247767,247.52101)" />
    <path
       sodipodi:type="arc"
       style="fill:#d4aa00;fill-opacity:1;stroke:none"
       id="path3089-1-7-1-1-1"
       sodipodi:cx="246.9823"
       sodipodi:cy="166.4584"
       sodipodi:rx="7.5761442"
       sodipodi:ry="7.5761442"
       d="m 254.55844,166.4584 a 7.5761442,7.5761442 0 1 1 -15.15228,0 7.5761442,7.5761442 0 1 1 15.15228,0 z"
       transform="matrix(0.95087404,0,-0.47200241,0.81753215,38.728139,211.30059)" />
    <path
       sodipodi:type="arc"
       style="fill:#ffdd55;fill-opacity:1;stroke:none"
       id="path3089-7-9-1-9-3"
       sodipodi:cx="246.9823"
       sodipodi:cy="166.4584"
       sodipodi:rx="7.5761442"
       sodipodi:ry="7.5761442"
       d="m 254.55844,166.4584 a 7.5761442,7.5761442 0 1 1 -15.15228,0 7.5761442,7.5761442 0 1 1 15.15228,0 z"
       transform="matrix(0.95087404,0,-0.47200241,0.81753215,28.272205,229.4108)" />
    <path
       sodipodi:type="arc"
       style="fill:#d4aa00;fill-opacity:1;stroke:none"
       id="path3089-11-5-3-8-5"
       sodipodi:cx="246.9823"
       sodipodi:cy="166.4584"
       sodipodi:rx="7.5761442"
       sodipodi:ry="7.5761442"
       d="m 254.55844,166.4584 a 7.5761442,7.5761442 0 1 1 -15.15228,0 7.5761442,7.5761442 0 1 1 15.15228,0 z"
       transform="matrix(0.95087404,0,-0.47200241,0.81753215,17.816271,247.52101)" />
    <path
       style="fill:#800000;fill-opacity:1;stroke:none"
       d="m 147.99175,337.83951 -33.96942,58.83676 68.43321,0 33.96943,-58.83676 -68.43322,0 z m 10.36158,4.95629 c 3.97863,0 5.59641,2.76187 3.62146,6.18258 -1.97494,3.42071 -6.78186,6.18259 -10.7605,6.18259 -3.97864,0 -5.62613,-2.76188 -3.65118,-6.18259 1.97495,-3.42071 6.81158,-6.18258 10.79022,-6.18258 z m 21.0678,0 c 3.97864,0 5.59641,2.76187 3.62147,6.18258 -1.97495,3.42071 -6.78187,6.18259 -10.76051,6.18259 -3.97863,0 -5.62613,-2.76188 -3.65118,-6.18259 1.97495,-3.42071 6.81158,-6.18258 10.79022,-6.18258 z m 21.03809,0 c 3.97864,0 5.62613,2.76187 3.65118,6.18258 -1.97495,3.42071 -6.81158,6.18259 -10.79022,6.18259 -3.97864,0 -5.59641,-2.76188 -3.62147,-6.18259 1.97495,-3.42071 6.78187,-6.18258 10.76051,-6.18258 z m -52.54895,18.08789 c 3.97864,0 5.58167,2.78743 3.60672,6.20814 -1.97495,3.42071 -6.78187,6.18259 -10.7605,6.18259 -3.97864,0 -5.62613,-2.76188 -3.65118,-6.18259 1.97494,-3.42071 6.82633,-6.20814 10.80496,-6.20814 z m 21.06781,0 c 3.97863,0 5.58166,2.78743 3.60671,6.20814 -1.97494,3.42071 -6.78186,6.18259 -10.7605,6.18259 -3.97864,0 -5.62613,-2.76188 -3.65118,-6.18259 1.97495,-3.42071 6.82633,-6.20814 10.80497,-6.20814 z m 21.03808,0 c 3.97864,0 5.61138,2.78743 3.63644,6.20814 -1.97495,3.42071 -6.81158,6.18259 -10.79022,6.18259 -3.97864,0 -5.59642,-2.76188 -3.62147,-6.18259 1.97495,-3.42071 6.79662,-6.20814 10.77525,-6.20814 z m -52.56369,18.11345 c 3.97864,0 5.58166,2.78743 3.60672,6.20814 -1.97495,3.42071 -6.78187,6.18258 -10.76051,6.18258 -3.97863,0 -5.62613,-2.76187 -3.65118,-6.18258 1.97495,-3.42071 6.82633,-6.20814 10.80497,-6.20814 z m 21.0678,0 c 3.97864,0 5.58167,2.78743 3.60672,6.20814 -1.97495,3.42071 -6.78187,6.18258 -10.7605,6.18258 -3.97864,0 -5.62613,-2.76187 -3.65118,-6.18258 1.97494,-3.42071 6.82633,-6.20814 10.80496,-6.20814 z m 21.03809,0 c 3.97864,0 5.61138,2.78743 3.63643,6.20814 -1.97494,3.42071 -6.81158,6.18258 -10.79022,6.18258 -3.97863,0 -5.59641,-2.76187 -3.62146,-6.18258 1.97495,-3.42071 6.79661,-6.20814 10.77525,-6.20814 z"
       id="rect3091-6-9"
       inkscape:connector-curvature="0" />
    <rect
       style="fill:#ffcc00;fill-opacity:1;stroke:none"
       id="rect3091-8-4-0-8"
       width="64.803101"
       height="64.588341"
       x="-387.67361"
       y="-44.896786"
       transform="matrix(-0.5,-0.86602541,1,0,0,0)" />
    <path
       sodipodi:type="arc"
       style="fill:#ffdd55;fill-opacity:1;stroke:none"
       id="path3089-57-3-2-4"
       sodipodi:cx="246.9823"
       sodipodi:cy="166.4584"
       sodipodi:rx="7.5761442"
       sodipodi:ry="7.5761442"
       d="m 254.55844,166.4584 a 7.5761442,7.5761442 0 1 1 -15.15228,0 7.5761442,7.5761442 0 1 1 15.15228,0 z"
       transform="matrix(-0.46997648,-0.81402315,0.93683805,0,155.86042,529.22328)" />
    <path
       sodipodi:type="arc"
       style="fill:#ffdd55;fill-opacity:1;stroke:none"
       id="path3089-4-6-1-8-0"
       sodipodi:cx="246.9823"
       sodipodi:cy="166.4584"
       sodipodi:rx="7.5761442"
       sodipodi:ry="7.5761442"
       d="m 254.55844,166.4584 a 7.5761442,7.5761442 0 1 1 -15.15228,0 7.5761442,7.5761442 0 1 1 15.15228,0 z"
       transform="matrix(-0.46997648,-0.81402315,0.93683805,0,114.3542,529.22328)" />
    <path
       sodipodi:type="arc"
       style="fill:#ffdd55;fill-opacity:1;stroke:none"
       id="path3089-8-1-2-6-7"
       sodipodi:cx="246.9823"
       sodipodi:cy="166.4584"
       sodipodi:rx="7.5761442"
       sodipodi:ry="7.5761442"
       d="m 254.55844,166.4584 a 7.5761442,7.5761442 0 1 1 -15.15228,0 7.5761442,7.5761442 0 1 1 15.15228,0 z"
       transform="matrix(-0.46997648,-0.81402315,0.93683805,0,135.10731,529.22328)" />
    <path
       sodipodi:type="arc"
       style="fill:#ffdd55;fill-opacity:1;stroke:none"
       id="path3089-82-8-3-0-6"
       sodipodi:cx="246.9823"
       sodipodi:cy="166.4584"
       sodipodi:rx="7.5761442"
       sodipodi:ry="7.5761442"
       d="m 254.55844,166.4584 a 7.5761442,7.5761442 0 1 1 -15.15228,0 7.5761442,7.5761442 0 1 1 15.15228,0 z"
       transform="matrix(-0.46997648,-0.81402315,0.93683805,0,103.94315,511.19081)" />
    <path
       sodipodi:type="arc"
       style="fill:#ffdd55;fill-opacity:1;stroke:none"
       id="path3089-45-9-3-2-3"
       sodipodi:cx="246.9823"
       sodipodi:cy="166.4584"
       sodipodi:rx="7.5761442"
       sodipodi:ry="7.5761442"
       d="m 254.55844,166.4584 a 7.5761442,7.5761442 0 1 1 -15.15228,0 7.5761442,7.5761442 0 1 1 15.15228,0 z"
       transform="matrix(-0.46997648,-0.81402315,0.93683805,0,124.69625,511.19081)" />
    <path
       sodipodi:type="arc"
       style="fill:#ffdd55;fill-opacity:1;stroke:none"
       id="path3089-5-2-4-4-6"
       sodipodi:cx="246.9823"
       sodipodi:cy="166.4584"
       sodipodi:rx="7.5761442"
       sodipodi:ry="7.5761442"
       d="m 254.55844,166.4584 a 7.5761442,7.5761442 0 1 1 -15.15228,0 7.5761442,7.5761442 0 1 1 15.15228,0 z"
       transform="matrix(-0.46997648,-0.81402315,0.93683805,0,145.44936,511.19081)" />
    <path
       sodipodi:type="arc"
       style="fill:#ffdd55;fill-opacity:1;stroke:none"
       id="path3089-1-7-1-8-1"
       sodipodi:cx="246.9823"
       sodipodi:cy="166.4584"
       sodipodi:rx="7.5761442"
       sodipodi:ry="7.5761442"
       d="m 254.55844,166.4584 a 7.5761442,7.5761442 0 1 1 -15.15228,0 7.5761442,7.5761442 0 1 1 15.15228,0 z"
       transform="matrix(-0.46997648,-0.81402315,0.93683805,0,93.532093,493.15833)" />
    <path
       sodipodi:type="arc"
       style="fill:#ffdd55;fill-opacity:1;stroke:none"
       id="path3089-7-9-1-6-5"
       sodipodi:cx="246.9823"
       sodipodi:cy="166.4584"
       sodipodi:rx="7.5761442"
       sodipodi:ry="7.5761442"
       d="m 254.55844,166.4584 a 7.5761442,7.5761442 0 1 1 -15.15228,0 7.5761442,7.5761442 0 1 1 15.15228,0 z"
       transform="matrix(-0.46997648,-0.81402315,0.93683805,0,114.2852,493.15833)" />
    <path
       sodipodi:type="arc"
       style="fill:#ffdd55;fill-opacity:1;stroke:none"
       id="path3089-11-5-3-5-4"
       sodipodi:cx="246.9823"
       sodipodi:cy="166.4584"
       sodipodi:rx="7.5761442"
       sodipodi:ry="7.5761442"
       d="m 254.55844,166.4584 a 7.5761442,7.5761442 0 1 1 -15.15228,0 7.5761442,7.5761442 0 1 1 15.15228,0 z"
       transform="matrix(-0.46997648,-0.81402315,0.93683805,0,135.03831,493.15833)" />
    <path
       inkscape:connector-curvature="0"
       style="fill:#ff5555;fill-opacity:1;stroke:none"
       d="m 148.42392,337.07727 67.42307,0 -33.82362,-58.58423 -67.42307,0 33.82362,58.58423 z m -0.85603,-11.32001 c -1.96647,-3.40603 -0.38926,-6.15605 3.53064,-6.15605 3.91991,0 8.67257,2.75002 10.63904,6.15605 1.96647,3.40603 0.40395,6.18149 -3.51595,6.18149 -3.91991,0 -8.68726,-2.77546 -10.65373,-6.18149 z m -10.41291,-18.0357 c -1.96647,-3.40603 -0.38927,-6.15605 3.53064,-6.15605 3.91991,0 8.67256,2.75002 10.63903,6.15605 1.96647,3.40603 0.40396,6.18149 -3.51595,6.18149 -3.91991,0 -8.68725,-2.77546 -10.65372,-6.18149 z M 126.75675,289.7113 c -1.96647,-3.40603 -0.40396,-6.18149 3.51595,-6.18149 3.91991,0 8.68725,2.77546 10.65372,6.18149 1.96647,3.40603 0.38927,6.15605 -3.53064,6.15605 -3.91991,0 -8.67256,-2.75002 -10.63903,-6.15605 z m 41.53869,36.04596 c -1.96648,-3.40603 -0.36,-6.15605 3.55991,-6.15605 3.91991,0 8.67257,2.75002 10.63904,6.15605 1.96647,3.40603 0.40395,6.18149 -3.51596,6.18149 -3.9199,0 -8.71652,-2.77546 -10.68299,-6.18149 z m -10.41292,-18.0357 c -1.96647,-3.40603 -0.35999,-6.15605 3.55992,-6.15605 3.9199,0 8.67256,2.75002 10.63903,6.15605 1.96647,3.40603 0.40396,6.18149 -3.51595,6.18149 -3.91991,0 -8.71653,-2.77546 -10.683,-6.18149 z M 147.48429,289.7113 c -1.96647,-3.40603 -0.37468,-6.18149 3.54523,-6.18149 3.91991,0 8.68725,2.77546 10.65372,6.18149 1.96647,3.40603 0.38927,6.15605 -3.53064,6.15605 -3.91991,0 -8.70184,-2.75002 -10.66831,-6.15605 z m 41.56796,36.04596 c -1.96647,-3.40603 -0.35999,-6.15605 3.55992,-6.15605 3.91991,0 8.67256,2.75002 10.63904,6.15605 1.96647,3.40603 0.40395,6.18149 -3.51596,6.18149 -3.91991,0 -8.71653,-2.77546 -10.683,-6.18149 z m -10.41291,-18.0357 c -1.96647,-3.40603 -0.35999,-6.15605 3.55991,-6.15605 3.91991,0 8.67257,2.75002 10.63904,6.15605 1.96647,3.40603 0.40395,6.18149 -3.51595,6.18149 -3.91991,0 -8.71653,-2.77546 -10.683,-6.18149 z M 168.24111,289.7113 c -1.96647,-3.40603 -0.37468,-6.18149 3.54523,-6.18149 3.91991,0 8.68725,2.77546 10.65372,6.18149 1.96647,3.40603 0.38927,6.15605 -3.53064,6.15605 -3.91991,0 -8.70184,-2.75002 -10.66831,-6.15605 z"
       id="rect3091-0-2" />
    <rect
       style="fill:#d4aa00;fill-opacity:1;stroke:none"
       id="rect3091-8-4-00-0"
       width="65.31411"
       height="65.082436"
       x="48.869476"
       y="-341.22571"
       transform="matrix(-0.5,0.8660254,-0.5,-0.8660254,0,0)" />
    <path
       sodipodi:type="arc"
       style="fill:#ffcc00;fill-opacity:1;stroke:none"
       id="path3089-57-3-6-9"
       sodipodi:cx="246.9823"
       sodipodi:cy="166.4584"
       sodipodi:rx="7.5761442"
       sodipodi:ry="7.5761442"
       d="m 254.55844,166.4584 a 7.5761442,7.5761442 0 1 1 -15.15228,0 7.5761442,7.5761442 0 1 1 15.15228,0 z"
       transform="matrix(-0.47368252,0.82044219,-0.47200241,-0.81753215,311.56524,234.26352)" />
    <path
       sodipodi:type="arc"
       style="fill:#ffdd55;fill-opacity:1;stroke:none"
       id="path3089-4-6-1-1-7"
       sodipodi:cx="246.9823"
       sodipodi:cy="166.4584"
       sodipodi:rx="7.5761442"
       sodipodi:ry="7.5761442"
       d="m 254.55844,166.4584 a 7.5761442,7.5761442 0 1 1 -15.15228,0 7.5761442,7.5761442 0 1 1 15.15228,0 z"
       transform="matrix(-0.47368252,0.82044219,-0.47200241,-0.81753215,332.4771,270.48394)" />
    <path
       sodipodi:type="arc"
       style="fill:#ffdd55;fill-opacity:1;stroke:none"
       id="path3089-8-1-2-3-3"
       sodipodi:cx="246.9823"
       sodipodi:cy="166.4584"
       sodipodi:rx="7.5761442"
       sodipodi:ry="7.5761442"
       d="m 254.55844,166.4584 a 7.5761442,7.5761442 0 1 1 -15.15228,0 7.5761442,7.5761442 0 1 1 15.15228,0 z"
       transform="matrix(-0.47368252,0.82044219,-0.47200241,-0.81753215,322.02117,252.37373)" />
    <path
       sodipodi:type="arc"
       style="fill:#ffdd55;fill-opacity:1;stroke:none"
       id="path3089-82-8-3-8-7"
       sodipodi:cx="246.9823"
       sodipodi:cy="166.4584"
       sodipodi:rx="7.5761442"
       sodipodi:ry="7.5761442"
       d="m 254.55844,166.4584 a 7.5761442,7.5761442 0 1 1 -15.15228,0 7.5761442,7.5761442 0 1 1 15.15228,0 z"
       transform="matrix(-0.47368252,0.82044219,-0.47200241,-0.81753215,321.98395,288.65861)" />
    <path
       sodipodi:type="arc"
       style="fill:#ffcc00;fill-opacity:1;stroke:none"
       id="path3089-45-9-3-93-2"
       sodipodi:cx="246.9823"
       sodipodi:cy="166.4584"
       sodipodi:rx="7.5761442"
       sodipodi:ry="7.5761442"
       d="m 254.55844,166.4584 a 7.5761442,7.5761442 0 1 1 -15.15228,0 7.5761442,7.5761442 0 1 1 15.15228,0 z"
       transform="matrix(-0.47368252,0.82044219,-0.47200241,-0.81753215,311.52802,270.5484)" />
    <path
       sodipodi:type="arc"
       style="fill:#ffdd55;fill-opacity:1;stroke:none"
       id="path3089-5-2-4-44-6"
       sodipodi:cx="246.9823"
       sodipodi:cy="166.4584"
       sodipodi:rx="7.5761442"
       sodipodi:ry="7.5761442"
       d="m 254.55844,166.4584 a 7.5761442,7.5761442 0 1 1 -15.15228,0 7.5761442,7.5761442 0 1 1 15.15228,0 z"
       transform="matrix(-0.47368252,0.82044219,-0.47200241,-0.81753215,301.07208,252.4382)" />
    <path
       sodipodi:type="arc"
       style="fill:#ffcc00;fill-opacity:1;stroke:none"
       id="path3089-1-7-1-6-0"
       sodipodi:cx="246.9823"
       sodipodi:cy="166.4584"
       sodipodi:rx="7.5761442"
       sodipodi:ry="7.5761442"
       d="m 254.55844,166.4584 a 7.5761442,7.5761442 0 1 1 -15.15228,0 7.5761442,7.5761442 0 1 1 15.15228,0 z"
       transform="matrix(-0.47368252,0.82044219,-0.47200241,-0.81753215,311.4908,306.83329)" />
    <path
       sodipodi:type="arc"
       style="fill:#ffdd55;fill-opacity:1;stroke:none"
       id="path3089-7-9-1-0-1"
       sodipodi:cx="246.9823"
       sodipodi:cy="166.4584"
       sodipodi:rx="7.5761442"
       sodipodi:ry="7.5761442"
       d="m 254.55844,166.4584 a 7.5761442,7.5761442 0 1 1 -15.15228,0 7.5761442,7.5761442 0 1 1 15.15228,0 z"
       transform="matrix(-0.47368252,0.82044219,-0.47200241,-0.81753215,301.03486,288.72308)" />
    <path
       sodipodi:type="arc"
       style="fill:#ffdd55;fill-opacity:1;stroke:none"
       id="path3089-11-5-3-6-6"
       sodipodi:cx="246.9823"
       sodipodi:cy="166.4584"
       sodipodi:rx="7.5761442"
       sodipodi:ry="7.5761442"
       d="m 254.55844,166.4584 a 7.5761442,7.5761442 0 1 1 -15.15228,0 7.5761442,7.5761442 0 1 1 15.15228,0 z"
       transform="matrix(-0.47368252,0.82044219,-0.47200241,-0.81753215,290.57893,270.61287)" />
    <path
       inkscape:connector-curvature="0"
       style="fill:#d40000;fill-opacity:1;stroke:none"
       d="m 147.60948,337.60622 -33.96942,-58.83677 -34.09034,59.0462 33.96942,58.83676 34.09034,-59.04619 z m -9.44866,6.45298 c -1.98198,3.43289 -5.17679,3.44272 -7.15174,0.022 -1.97495,-3.42071 -1.96927,-8.9543 0.0127,-12.38718 1.98198,-3.43289 5.1916,-3.46836 7.16655,-0.0477 1.97495,3.42071 1.95447,8.97993 -0.0275,12.41282 z m -10.49503,18.17792 c -1.98197,3.43289 -5.17679,3.44272 -7.15174,0.022 -1.97495,-3.42071 -1.96927,-8.95429 0.0127,-12.38718 1.98197,-3.43289 5.19159,-3.46836 7.16654,-0.0477 1.97495,3.42071 1.95447,8.97994 -0.0275,12.41282 z m -10.48022,18.15229 c -1.98198,3.43288 -5.1916,3.46835 -7.16655,0.0476 -1.97495,-3.42071 -1.95447,-8.97993 0.0275,-12.41282 1.98198,-3.43288 5.1768,-3.44271 7.15174,-0.022 1.97495,3.42071 1.96927,8.95429 -0.0127,12.38718 z m 10.5322,-54.41811 c -1.98198,3.43289 -5.19155,3.41717 -7.16649,-0.004 -1.97495,-3.42071 -1.96928,-8.95429 0.0127,-12.38718 1.98198,-3.43289 5.1916,-3.46836 7.16655,-0.0477 1.97494,3.42071 1.96922,9.00549 -0.0128,12.43837 z m -10.49503,18.17792 c -1.98198,3.43289 -5.19155,3.41717 -7.16649,-0.004 -1.97495,-3.42071 -1.96927,-8.95429 0.0127,-12.38718 1.98198,-3.43288 5.1916,-3.46835 7.16655,-0.0476 1.97495,3.42071 1.96922,9.00548 -0.0128,12.43836 z m -10.48023,18.15229 c -1.98197,3.43288 -5.20634,3.44281 -7.18129,0.0221 -1.97495,-3.42071 -1.95447,-8.97994 0.0275,-12.41282 1.98198,-3.43289 5.17679,-3.44272 7.15174,-0.022 1.97495,3.42071 1.98402,8.97984 0.002,12.41273 z m 10.51745,-54.44365 c -1.98197,3.43288 -5.19154,3.41716 -7.16649,-0.004 -1.97495,-3.42071 -1.96927,-8.95429 0.0127,-12.38718 1.98198,-3.43288 5.19159,-3.46835 7.16654,-0.0476 1.97495,3.42071 1.96922,9.00548 -0.0128,12.43837 z m -10.49502,18.17792 c -1.98198,3.43288 -5.19155,3.41717 -7.16649,-0.004 -1.97495,-3.42071 -1.96928,-8.9543 0.0127,-12.38718 1.98197,-3.43289 5.19159,-3.46836 7.16653,-0.0477 1.97495,3.42071 1.96922,9.00548 -0.0127,12.43837 z m -10.48023,18.15228 c -1.98197,3.43289 -5.20634,3.44281 -7.18129,0.0221 -1.97495,-3.42071 -1.95447,-8.97993 0.0275,-12.41282 1.98197,-3.43289 5.17679,-3.44272 7.15174,-0.022 1.97495,3.42071 1.98402,8.97985 0.002,12.41273 z"
       id="rect3091-61-5" />
    <path
       sodipodi:type="arc"
       style="fill:#ff5555;fill-opacity:1;stroke:none"
       id="path3676"
       sodipodi:cx="238.57143"
       sodipodi:cy="295.93362"
       sodipodi:rx="9.6428576"
       sodipodi:ry="9.6428576"
       d="m 248.21428,295.93362 a 9.6428576,9.6428576 0 1 1 -19.28571,0 9.6428576,9.6428576 0 1 1 19.28571,0 z"
       transform="translate(-73.928572,12.142857)" />
    <path
       sodipodi:type="arc"
       style="fill:#ff5555;fill-opacity:1;stroke:none"
       id="path3676-7"
       sodipodi:cx="238.57143"
       sodipodi:cy="295.93362"
       sodipodi:rx="9.6428576"
       sodipodi:ry="9.6428576"
       d="m 248.21428,295.93362 a 9.6428576,9.6428576 0 1 1 -19.28571,0 9.6428576,9.6428576 0 1 1 19.28571,0 z"
       transform="translate(-62.857141,28.571414)" />
    <path
       sodipodi:type="arc"
       style="fill:#ff5555;fill-opacity:1;stroke:none"
       id="path3676-5"
       sodipodi:cx="238.57143"
       sodipodi:cy="295.93362"
       sodipodi:rx="9.6428576"
       sodipodi:ry="9.6428576"
       d="m 248.21428,295.93362 a 9.6428576,9.6428576 0 1 1 -19.28571,0 9.6428576,9.6428576 0 1 1 19.28571,0 z"
       transform="translate(-83.928569,-6.071443)" />
    <path
       sodipodi:type="arc"
       style="fill:#d40000;fill-opacity:1;stroke:none"
       id="path3676-4-1"
       sodipodi:cx="238.57143"
       sodipodi:cy="295.93362"
       sodipodi:rx="9.6428576"
       sodipodi:ry="9.6428576"
       d="m 248.21428,295.93362 a 9.6428576,9.6428576 0 1 1 -19.28571,0 9.6428576,9.6428576 0 1 1 19.28571,0 z"
       transform="translate(-134.76912,24.242371)" />
    <path
       sodipodi:type="arc"
       style="fill:#d40000;fill-opacity:1;stroke:none"
       id="path3676-4-2"
       sodipodi:cx="238.57143"
       sodipodi:cy="295.93362"
       sodipodi:rx="9.6428576"
       sodipodi:ry="9.6428576"
       d="m 248.21428,295.93362 a 9.6428576,9.6428576 0 1 1 -19.28571,0 9.6428576,9.6428576 0 1 1 19.28571,0 z"
       transform="translate(-116.42857,60.357129)" />
    <path
       sodipodi:type="arc"
       style="fill:#d40000;fill-opacity:1;stroke:none"
       id="path3676-4-0"
       sodipodi:cx="238.57143"
       sodipodi:cy="295.93362"
       sodipodi:rx="9.6428576"
       sodipodi:ry="9.6428576"
       d="m 248.21428,295.93362 a 9.6428576,9.6428576 0 1 1 -19.28571,0 9.6428576,9.6428576 0 1 1 19.28571,0 z"
       transform="translate(-105.88203,42.058044)" />
    <path
       sodipodi:type="arc"
       style="fill:#d40000;fill-opacity:1;stroke:none"
       id="path3676-4-01"
       sodipodi:cx="238.57143"
       sodipodi:cy="295.93362"
       sodipodi:rx="9.6428576"
       sodipodi:ry="9.6428576"
       d="m 248.21428,295.93362 a 9.6428576,9.6428576 0 1 1 -19.28571,0 9.6428576,9.6428576 0 1 1 19.28571,0 z"
       transform="translate(-115.27235,24.264036)" />
    <path
       sodipodi:type="arc"
       style="fill:#d40000;fill-opacity:1;stroke:none"
       id="path3676-4-4"
       sodipodi:cx="238.57143"
       sodipodi:cy="295.93362"
       sodipodi:rx="9.6428576"
       sodipodi:ry="9.6428576"
       d="m 248.21428,295.93362 a 9.6428576,9.6428576 0 1 1 -19.28571,0 9.6428576,9.6428576 0 1 1 19.28571,0 z"
       transform="translate(-135.71429,60.357128)" />
    <path
       sodipodi:type="arc"
       style="fill:#d40000;fill-opacity:1;stroke:none"
       id="path3676-4-6"
       sodipodi:cx="238.57143"
       sodipodi:cy="295.93362"
       sodipodi:rx="9.6428576"
       sodipodi:ry="9.6428576"
       d="m 248.21428,295.93362 a 9.6428576,9.6428576 0 1 1 -19.28571,0 9.6428576,9.6428576 0 1 1 19.28571,0 z"
       transform="translate(-146.0162,42.629515)" />
    <path
       sodipodi:type="arc"
       style="fill:#800000;fill-opacity:1;stroke:none"
       id="path3676-4-07"
       sodipodi:cx="238.57143"
       sodipodi:cy="295.93362"
       sodipodi:rx="9.6428576"
       sodipodi:ry="9.6428576"
       d="m 248.21428,295.93362 a 9.6428576,9.6428576 0 1 1 -19.28571,0 9.6428576,9.6428576 0 1 1 19.28571,0 z"
       transform="translate(-82.85714,88.928557)" />
    <path
       sodipodi:type="arc"
       style="fill:#800000;fill-opacity:1;stroke:none"
       id="path3676-4-07-7"
       sodipodi:cx="238.57143"
       sodipodi:cy="295.93362"
       sodipodi:rx="9.6428576"
       sodipodi:ry="9.6428576"
       d="m 248.21428,295.93362 a 9.6428576,9.6428576 0 1 1 -19.28571,0 9.6428576,9.6428576 0 1 1 19.28571,0 z"
       transform="translate(-62.321426,54.2857)" />
    <path
       sodipodi:type="arc"
       style="fill:#800000;fill-opacity:1;stroke:none"
       id="path3676-4-07-77"
       sodipodi:cx="238.57143"
       sodipodi:cy="295.93362"
       sodipodi:rx="9.6428576"
       sodipodi:ry="9.6428576"
       d="m 248.21428,295.93362 a 9.6428576,9.6428576 0 1 1 -19.28571,0 9.6428576,9.6428576 0 1 1 19.28571,0 z"
       transform="translate(-51.60714,71.428557)" />
    <path
       sodipodi:type="arc"
       style="fill:#800000;fill-opacity:1;stroke:none"
       id="path3676-4-07-73"
       sodipodi:cx="238.57143"
       sodipodi:cy="295.93362"
       sodipodi:rx="9.6428576"
       sodipodi:ry="9.6428576"
       d="m 248.21428,295.93362 a 9.6428576,9.6428576 0 1 1 -19.28571,0 9.6428576,9.6428576 0 1 1 19.28571,0 z"
       transform="translate(-93.749997,71.964271)" />
    <g
       id="g3153"
       inkscape:export-filename="C:\Users\Hans\Desktop\dice_negative.png"
       inkscape:export-xdpi="480"
       inkscape:export-ydpi="480">
      <path
         id="path3003-8-1"
         d="M 276.6875 326.875 L 242.5625 385.96875 L 276.6875 445.0625 L 310.8125 385.96875 L 276.6875 326.875 z M 276.375 329.71875 L 308.90625 386.09375 L 276.25 442.65625 L 243.71875 386.28125 L 276.375 329.71875 z "
         style="fill:#d40000;fill-opacity:1;stroke:none" />
      <path
         id="path3003-1-7-4-7"
         d="M 276.65625 326.875 L 310.75 385.90625 L 310.625 386.09375 L 378.875 386.09375 L 344.78125 327.0625 L 344.90625 326.875 L 276.65625 326.875 z M 279.25 327.875 L 343.84375 327.875 L 376.25 384 L 311.65625 384 L 279.25 327.875 z "
         style="fill:#ff5555;fill-opacity:1;stroke:none" />
      <path
         id="path3003-1-7-0-9-4"
         d="M 310.78125 385.84375 L 276.65625 444.9375 L 344.84375 444.9375 L 344.9375 445.125 L 379.0625 386.03125 L 310.875 386.03125 L 310.78125 385.84375 z M 311.625 387.21875 L 377.1875 387.21875 L 344.65625 443.59375 L 279.09375 443.59375 L 311.625 387.21875 z "
         style="fill:#800000;fill-opacity:1;stroke:none" />
      <path
         inkscape:export-ydpi="480"
         inkscape:export-xdpi="480"
         inkscape:export-filename="C:\Users\Hans\Desktop\dice_negative.png"
         transform="matrix(0.95087404,0,-0.47200241,0.81753215,148.87107,277.66516)"
         d="m 254.55844,166.4584 a 7.5761442,7.5761442 0 1 1 -15.15228,0 7.5761442,7.5761442 0 1 1 15.15228,0 z"
         sodipodi:ry="7.5761442"
         sodipodi:rx="7.5761442"
         sodipodi:cy="166.4584"
         sodipodi:cx="246.9823"
         id="path3089-8-1-2-7-8-8"
         style="fill:#ffdd55;fill-opacity:1;stroke:none"
         sodipodi:type="arc" />
      <path
         inkscape:export-ydpi="480"
         inkscape:export-xdpi="480"
         inkscape:export-filename="C:\Users\Hans\Desktop\dice_negative.png"
         transform="matrix(0.95087404,0,-0.47200241,0.81753215,180.39104,259.55495)"
         d="m 254.55844,166.4584 a 7.5761442,7.5761442 0 1 1 -15.15228,0 7.5761442,7.5761442 0 1 1 15.15228,0 z"
         sodipodi:ry="7.5761442"
         sodipodi:rx="7.5761442"
         sodipodi:cy="166.4584"
         sodipodi:cx="246.9823"
         id="path3089-82-8-3-7-8-8"
         style="fill:#ffdd55;fill-opacity:1;stroke:none"
         sodipodi:type="arc" />
      <path
         inkscape:export-ydpi="480"
         inkscape:export-xdpi="480"
         inkscape:export-filename="C:\Users\Hans\Desktop\dice_negative.png"
         transform="matrix(0.95087404,0,-0.47200241,0.81753215,159.47917,295.77537)"
         d="m 254.55844,166.4584 a 7.5761442,7.5761442 0 1 1 -15.15228,0 7.5761442,7.5761442 0 1 1 15.15228,0 z"
         sodipodi:ry="7.5761442"
         sodipodi:rx="7.5761442"
         sodipodi:cy="166.4584"
         sodipodi:cx="246.9823"
         id="path3089-5-2-4-3-9-4"
         style="fill:#ffdd55;fill-opacity:1;stroke:none"
         sodipodi:type="arc" />
      <path
         inkscape:export-ydpi="480"
         inkscape:export-xdpi="480"
         inkscape:export-filename="C:\Users\Hans\Desktop\dice_negative.png"
         transform="matrix(0.95087404,0,-0.47200241,0.81753215,190.99915,277.66516)"
         d="m 254.55844,166.4584 a 7.5761442,7.5761442 0 1 1 -15.15228,0 7.5761442,7.5761442 0 1 1 15.15228,0 z"
         sodipodi:ry="7.5761442"
         sodipodi:rx="7.5761442"
         sodipodi:cy="166.4584"
         sodipodi:cx="246.9823"
         id="path3089-7-9-1-9-3-5"
         style="fill:#ffdd55;fill-opacity:1;stroke:none"
         sodipodi:type="arc" />
      <path
         inkscape:export-ydpi="480"
         inkscape:export-xdpi="480"
         inkscape:export-filename="C:\Users\Hans\Desktop\dice_negative.png"
         inkscape:connector-curvature="0"
         id="rect3091-6-9-7"
         d="m 310.71869,386.09387 -33.96942,58.83676 68.43321,0 33.96943,-58.83676 -68.43322,0 z m 10.36158,4.95629 c 3.97863,0 5.59641,2.76187 3.62146,6.18258 -1.97494,3.42071 -6.78186,6.18259 -10.7605,6.18259 -3.97864,0 -5.62613,-2.76188 -3.65118,-6.18259 1.97495,-3.42071 6.81158,-6.18258 10.79022,-6.18258 z m 21.0678,0 c 3.97864,0 5.59641,2.76187 3.62147,6.18258 -1.97495,3.42071 -6.78187,6.18259 -10.76051,6.18259 -3.97863,0 -5.62613,-2.76188 -3.65118,-6.18259 1.97495,-3.42071 6.81158,-6.18258 10.79022,-6.18258 z m 21.03809,0 c 3.97864,0 5.62613,2.76187 3.65118,6.18258 -1.97495,3.42071 -6.81158,6.18259 -10.79022,6.18259 -3.97864,0 -5.59641,-2.76188 -3.62147,-6.18259 1.97495,-3.42071 6.78187,-6.18258 10.76051,-6.18258 z m -52.54895,18.08789 c 3.97864,0 5.58167,2.78743 3.60672,6.20814 -1.97495,3.42071 -6.78187,6.18259 -10.7605,6.18259 -3.97864,0 -5.62613,-2.76188 -3.65118,-6.18259 1.97494,-3.42071 6.82633,-6.20814 10.80496,-6.20814 z m 21.06781,0 c 3.97863,0 5.58166,2.78743 3.60671,6.20814 -1.97494,3.42071 -6.78186,6.18259 -10.7605,6.18259 -3.97864,0 -5.62613,-2.76188 -3.65118,-6.18259 1.97495,-3.42071 6.82633,-6.20814 10.80497,-6.20814 z m 21.03808,0 c 3.97864,0 5.61138,2.78743 3.63644,6.20814 -1.97495,3.42071 -6.81158,6.18259 -10.79022,6.18259 -3.97864,0 -5.59642,-2.76188 -3.62147,-6.18259 1.97495,-3.42071 6.79662,-6.20814 10.77525,-6.20814 z m -52.56369,18.11345 c 3.97864,0 5.58166,2.78743 3.60672,6.20814 -1.97495,3.42071 -6.78187,6.18258 -10.76051,6.18258 -3.97863,0 -5.62613,-2.76187 -3.65118,-6.18258 1.97495,-3.42071 6.82633,-6.20814 10.80497,-6.20814 z m 21.0678,0 c 3.97864,0 5.58167,2.78743 3.60672,6.20814 -1.97495,3.42071 -6.78187,6.18258 -10.7605,6.18258 -3.97864,0 -5.62613,-2.76187 -3.65118,-6.18258 1.97494,-3.42071 6.82633,-6.20814 10.80496,-6.20814 z m 21.03809,0 c 3.97864,0 5.61138,2.78743 3.63643,6.20814 -1.97494,3.42071 -6.81158,6.18258 -10.79022,6.18258 -3.97863,0 -5.59641,-2.76187 -3.62146,-6.18258 1.97495,-3.42071 6.79661,-6.20814 10.77525,-6.20814 z"
         style="fill:#800000;fill-opacity:1;stroke:none" />
      <path
         inkscape:export-ydpi="480"
         inkscape:export-xdpi="480"
         inkscape:export-filename="C:\Users\Hans\Desktop\dice_negative.png"
         transform="matrix(-0.46997648,-0.81402315,0.93683805,0,297.83425,577.47764)"
         d="m 254.55844,166.4584 a 7.5761442,7.5761442 0 1 1 -15.15228,0 7.5761442,7.5761442 0 1 1 15.15228,0 z"
         sodipodi:ry="7.5761442"
         sodipodi:rx="7.5761442"
         sodipodi:cy="166.4584"
         sodipodi:cx="246.9823"
         id="path3089-8-1-2-6-7-2"
         style="fill:#ffdd55;fill-opacity:1;stroke:none"
         sodipodi:type="arc" />
      <path
         inkscape:export-ydpi="480"
         inkscape:export-xdpi="480"
         inkscape:export-filename="C:\Users\Hans\Desktop\dice_negative.png"
         transform="matrix(-0.46997648,-0.81402315,0.93683805,0,287.42319,559.44517)"
         d="m 254.55844,166.4584 a 7.5761442,7.5761442 0 1 1 -15.15228,0 7.5761442,7.5761442 0 1 1 15.15228,0 z"
         sodipodi:ry="7.5761442"
         sodipodi:rx="7.5761442"
         sodipodi:cy="166.4584"
         sodipodi:cx="246.9823"
         id="path3089-45-9-3-2-3-6"
         style="fill:#ffdd55;fill-opacity:1;stroke:none"
         sodipodi:type="arc" />
      <path
         inkscape:export-ydpi="480"
         inkscape:export-xdpi="480"
         inkscape:export-filename="C:\Users\Hans\Desktop\dice_negative.png"
         transform="matrix(-0.46997648,-0.81402315,0.93683805,0,277.01214,541.41269)"
         d="m 254.55844,166.4584 a 7.5761442,7.5761442 0 1 1 -15.15228,0 7.5761442,7.5761442 0 1 1 15.15228,0 z"
         sodipodi:ry="7.5761442"
         sodipodi:rx="7.5761442"
         sodipodi:cy="166.4584"
         sodipodi:cx="246.9823"
         id="path3089-7-9-1-6-5-2"
         style="fill:#ffdd55;fill-opacity:1;stroke:none"
         sodipodi:type="arc" />
      <path
         inkscape:export-ydpi="480"
         inkscape:export-xdpi="480"
         inkscape:export-filename="C:\Users\Hans\Desktop\dice_negative.png"
         id="rect3091-0-2-2"
         d="m 311.15086,385.33163 67.42307,0 -33.82362,-58.58423 -67.42307,0 33.82362,58.58423 z m -0.85603,-11.32001 c -1.96647,-3.40603 -0.38926,-6.15605 3.53064,-6.15605 3.91991,0 8.67257,2.75002 10.63904,6.15605 1.96647,3.40603 0.40395,6.18149 -3.51595,6.18149 -3.91991,0 -8.68726,-2.77546 -10.65373,-6.18149 z m -10.41291,-18.0357 c -1.96647,-3.40603 -0.38927,-6.15605 3.53064,-6.15605 3.91991,0 8.67256,2.75002 10.63903,6.15605 1.96647,3.40603 0.40396,6.18149 -3.51595,6.18149 -3.91991,0 -8.68725,-2.77546 -10.65372,-6.18149 z m -10.39823,-18.01026 c -1.96647,-3.40603 -0.40396,-6.18149 3.51595,-6.18149 3.91991,0 8.68725,2.77546 10.65372,6.18149 1.96647,3.40603 0.38927,6.15605 -3.53064,6.15605 -3.91991,0 -8.67256,-2.75002 -10.63903,-6.15605 z m 41.53869,36.04596 c -1.96648,-3.40603 -0.36,-6.15605 3.55991,-6.15605 3.91991,0 8.67257,2.75002 10.63904,6.15605 1.96647,3.40603 0.40395,6.18149 -3.51596,6.18149 -3.9199,0 -8.71652,-2.77546 -10.68299,-6.18149 z m -10.41292,-18.0357 c -1.96647,-3.40603 -0.35999,-6.15605 3.55992,-6.15605 3.9199,0 8.67256,2.75002 10.63903,6.15605 1.96647,3.40603 0.40396,6.18149 -3.51595,6.18149 -3.91991,0 -8.71653,-2.77546 -10.683,-6.18149 z m -10.39823,-18.01026 c -1.96647,-3.40603 -0.37468,-6.18149 3.54523,-6.18149 3.91991,0 8.68725,2.77546 10.65372,6.18149 1.96647,3.40603 0.38927,6.15605 -3.53064,6.15605 -3.91991,0 -8.70184,-2.75002 -10.66831,-6.15605 z m 41.56796,36.04596 c -1.96647,-3.40603 -0.35999,-6.15605 3.55992,-6.15605 3.91991,0 8.67256,2.75002 10.63904,6.15605 1.96647,3.40603 0.40395,6.18149 -3.51596,6.18149 -3.91991,0 -8.71653,-2.77546 -10.683,-6.18149 z m -10.41291,-18.0357 c -1.96647,-3.40603 -0.35999,-6.15605 3.55991,-6.15605 3.91991,0 8.67257,2.75002 10.63904,6.15605 1.96647,3.40603 0.40395,6.18149 -3.51595,6.18149 -3.91991,0 -8.71653,-2.77546 -10.683,-6.18149 z m -10.39823,-18.01026 c -1.96647,-3.40603 -0.37468,-6.18149 3.54523,-6.18149 3.91991,0 8.68725,2.77546 10.65372,6.18149 1.96647,3.40603 0.38927,6.15605 -3.53064,6.15605 -3.91991,0 -8.70184,-2.75002 -10.66831,-6.15605 z"
         style="fill:#ff5555;fill-opacity:1;stroke:none"
         inkscape:connector-curvature="0" />
      <path
         inkscape:export-ydpi="480"
         inkscape:export-xdpi="480"
         inkscape:export-filename="C:\Users\Hans\Desktop\dice_negative.png"
         transform="matrix(-0.47368252,0.82044219,-0.47200241,-0.81753215,495.20404,318.7383)"
         d="m 254.55844,166.4584 a 7.5761442,7.5761442 0 1 1 -15.15228,0 7.5761442,7.5761442 0 1 1 15.15228,0 z"
         sodipodi:ry="7.5761442"
         sodipodi:rx="7.5761442"
         sodipodi:cy="166.4584"
         sodipodi:cx="246.9823"
         id="path3089-4-6-1-1-7-6"
         style="fill:#ffdd55;fill-opacity:1;stroke:none"
         sodipodi:type="arc" />
      <path
         inkscape:export-ydpi="480"
         inkscape:export-xdpi="480"
         inkscape:export-filename="C:\Users\Hans\Desktop\dice_negative.png"
         transform="matrix(-0.47368252,0.82044219,-0.47200241,-0.81753215,484.74811,300.62809)"
         d="m 254.55844,166.4584 a 7.5761442,7.5761442 0 1 1 -15.15228,0 7.5761442,7.5761442 0 1 1 15.15228,0 z"
         sodipodi:ry="7.5761442"
         sodipodi:rx="7.5761442"
         sodipodi:cy="166.4584"
         sodipodi:cx="246.9823"
         id="path3089-8-1-2-3-3-8"
         style="fill:#ffdd55;fill-opacity:1;stroke:none"
         sodipodi:type="arc" />
      <path
         inkscape:export-ydpi="480"
         inkscape:export-xdpi="480"
         inkscape:export-filename="C:\Users\Hans\Desktop\dice_negative.png"
         transform="matrix(-0.47368252,0.82044219,-0.47200241,-0.81753215,484.71089,336.91297)"
         d="m 254.55844,166.4584 a 7.5761442,7.5761442 0 1 1 -15.15228,0 7.5761442,7.5761442 0 1 1 15.15228,0 z"
         sodipodi:ry="7.5761442"
         sodipodi:rx="7.5761442"
         sodipodi:cy="166.4584"
         sodipodi:cx="246.9823"
         id="path3089-82-8-3-8-7-5"
         style="fill:#ffdd55;fill-opacity:1;stroke:none"
         sodipodi:type="arc" />
      <path
         inkscape:export-ydpi="480"
         inkscape:export-xdpi="480"
         inkscape:export-filename="C:\Users\Hans\Desktop\dice_negative.png"
         transform="matrix(-0.47368252,0.82044219,-0.47200241,-0.81753215,463.79902,300.69256)"
         d="m 254.55844,166.4584 a 7.5761442,7.5761442 0 1 1 -15.15228,0 7.5761442,7.5761442 0 1 1 15.15228,0 z"
         sodipodi:ry="7.5761442"
         sodipodi:rx="7.5761442"
         sodipodi:cy="166.4584"
         sodipodi:cx="246.9823"
         id="path3089-5-2-4-44-6-6"
         style="fill:#ffdd55;fill-opacity:1;stroke:none"
         sodipodi:type="arc" />
      <path
         inkscape:export-ydpi="480"
         inkscape:export-xdpi="480"
         inkscape:export-filename="C:\Users\Hans\Desktop\dice_negative.png"
         transform="matrix(-0.47368252,0.82044219,-0.47200241,-0.81753215,463.7618,336.97744)"
         d="m 254.55844,166.4584 a 7.5761442,7.5761442 0 1 1 -15.15228,0 7.5761442,7.5761442 0 1 1 15.15228,0 z"
         sodipodi:ry="7.5761442"
         sodipodi:rx="7.5761442"
         sodipodi:cy="166.4584"
         sodipodi:cx="246.9823"
         id="path3089-7-9-1-0-1-8"
         style="fill:#ffdd55;fill-opacity:1;stroke:none"
         sodipodi:type="arc" />
      <path
         inkscape:export-ydpi="480"
         inkscape:export-xdpi="480"
         inkscape:export-filename="C:\Users\Hans\Desktop\dice_negative.png"
         transform="matrix(-0.47368252,0.82044219,-0.47200241,-0.81753215,453.30587,318.86723)"
         d="m 254.55844,166.4584 a 7.5761442,7.5761442 0 1 1 -15.15228,0 7.5761442,7.5761442 0 1 1 15.15228,0 z"
         sodipodi:ry="7.5761442"
         sodipodi:rx="7.5761442"
         sodipodi:cy="166.4584"
         sodipodi:cx="246.9823"
         id="path3089-11-5-3-6-6-9"
         style="fill:#ffdd55;fill-opacity:1;stroke:none"
         sodipodi:type="arc" />
      <path
         inkscape:export-ydpi="480"
         inkscape:export-xdpi="480"
         inkscape:export-filename="C:\Users\Hans\Desktop\dice_negative.png"
         id="rect3091-61-5-2"
         d="m 310.33642,385.86058 -33.96942,-58.83677 -34.09034,59.0462 33.96942,58.83676 34.09034,-59.04619 z m -9.44866,6.45298 c -1.98198,3.43289 -5.17679,3.44272 -7.15174,0.022 -1.97495,-3.42071 -1.96927,-8.9543 0.0127,-12.38718 1.98198,-3.43289 5.1916,-3.46836 7.16655,-0.0477 1.97495,3.42071 1.95447,8.97993 -0.0275,12.41282 z m -10.49503,18.17792 c -1.98197,3.43289 -5.17679,3.44272 -7.15174,0.022 -1.97495,-3.42071 -1.96927,-8.95429 0.0127,-12.38718 1.98197,-3.43289 5.19159,-3.46836 7.16654,-0.0477 1.97495,3.42071 1.95447,8.97994 -0.0275,12.41282 z m -10.48022,18.15229 c -1.98198,3.43288 -5.1916,3.46835 -7.16655,0.0476 -1.97495,-3.42071 -1.95447,-8.97993 0.0275,-12.41282 1.98198,-3.43288 5.1768,-3.44271 7.15174,-0.022 1.97495,3.42071 1.96927,8.95429 -0.0127,12.38718 z m 10.5322,-54.41811 c -1.98198,3.43289 -5.19155,3.41717 -7.16649,-0.004 -1.97495,-3.42071 -1.96928,-8.95429 0.0127,-12.38718 1.98198,-3.43289 5.1916,-3.46836 7.16655,-0.0477 1.97494,3.42071 1.96922,9.00549 -0.0128,12.43837 z m -10.49503,18.17792 c -1.98198,3.43289 -5.19155,3.41717 -7.16649,-0.004 -1.97495,-3.42071 -1.96927,-8.95429 0.0127,-12.38718 1.98198,-3.43288 5.1916,-3.46835 7.16655,-0.0476 1.97495,3.42071 1.96922,9.00548 -0.0128,12.43836 z m -10.48023,18.15229 c -1.98197,3.43288 -5.20634,3.44281 -7.18129,0.0221 -1.97495,-3.42071 -1.95447,-8.97994 0.0275,-12.41282 1.98198,-3.43289 5.17679,-3.44272 7.15174,-0.022 1.97495,3.42071 1.98402,8.97984 0.002,12.41273 z m 10.51745,-54.44365 c -1.98197,3.43288 -5.19154,3.41716 -7.16649,-0.004 -1.97495,-3.42071 -1.96927,-8.95429 0.0127,-12.38718 1.98198,-3.43288 5.19159,-3.46835 7.16654,-0.0476 1.97495,3.42071 1.96922,9.00548 -0.0128,12.43837 z m -10.49502,18.17792 c -1.98198,3.43288 -5.19155,3.41717 -7.16649,-0.004 -1.97495,-3.42071 -1.96928,-8.9543 0.0127,-12.38718 1.98197,-3.43289 5.19159,-3.46836 7.16653,-0.0477 1.97495,3.42071 1.96922,9.00548 -0.0127,12.43837 z m -10.48023,18.15228 c -1.98197,3.43289 -5.20634,3.44281 -7.18129,0.0221 -1.97495,-3.42071 -1.95447,-8.97993 0.0275,-12.41282 1.98197,-3.43289 5.17679,-3.44272 7.15174,-0.022 1.97495,3.42071 1.98402,8.97985 0.002,12.41273 z"
         style="fill:#d40000;fill-opacity:1;stroke:none"
         inkscape:connector-curvature="0" />
      <path
         inkscape:export-ydpi="480"
         inkscape:export-xdpi="480"
         inkscape:export-filename="C:\Users\Hans\Desktop\dice_negative.png"
         transform="translate(88.798371,60.397216)"
         d="m 248.21428,295.93362 a 9.6428576,9.6428576 0 1 1 -19.28571,0 9.6428576,9.6428576 0 1 1 19.28571,0 z"
         sodipodi:ry="9.6428576"
         sodipodi:rx="9.6428576"
         sodipodi:cy="295.93362"
         sodipodi:cx="238.57143"
         id="path3676-79"
         style="fill:#ff5555;fill-opacity:1;stroke:none"
         sodipodi:type="arc" />
      <path
         inkscape:export-ydpi="480"
         inkscape:export-xdpi="480"
         inkscape:export-filename="C:\Users\Hans\Desktop\dice_negative.png"
         transform="translate(99.869801,76.825766)"
         d="m 248.21428,295.93362 a 9.6428576,9.6428576 0 1 1 -19.28571,0 9.6428576,9.6428576 0 1 1 19.28571,0 z"
         sodipodi:ry="9.6428576"
         sodipodi:rx="9.6428576"
         sodipodi:cy="295.93362"
         sodipodi:cx="238.57143"
         id="path3676-7-5"
         style="fill:#ff5555;fill-opacity:1;stroke:none"
         sodipodi:type="arc" />
      <path
         inkscape:export-ydpi="480"
         inkscape:export-xdpi="480"
         inkscape:export-filename="C:\Users\Hans\Desktop\dice_negative.png"
         transform="translate(78.798371,42.182916)"
         d="m 248.21428,295.93362 a 9.6428576,9.6428576 0 1 1 -19.28571,0 9.6428576,9.6428576 0 1 1 19.28571,0 z"
         sodipodi:ry="9.6428576"
         sodipodi:rx="9.6428576"
         sodipodi:cy="295.93362"
         sodipodi:cx="238.57143"
         id="path3676-5-4"
         style="fill:#ff5555;fill-opacity:1;stroke:none"
         sodipodi:type="arc" />
      <path
         inkscape:export-ydpi="480"
         inkscape:export-xdpi="480"
         inkscape:export-filename="C:\Users\Hans\Desktop\dice_negative.png"
         transform="translate(27.957821,72.496726)"
         d="m 248.21428,295.93362 a 9.6428576,9.6428576 0 1 1 -19.28571,0 9.6428576,9.6428576 0 1 1 19.28571,0 z"
         sodipodi:ry="9.6428576"
         sodipodi:rx="9.6428576"
         sodipodi:cy="295.93362"
         sodipodi:cx="238.57143"
         id="path3676-4-1-3"
         style="fill:#d40000;fill-opacity:1;stroke:none"
         sodipodi:type="arc" />
      <path
         inkscape:export-ydpi="480"
         inkscape:export-xdpi="480"
         inkscape:export-filename="C:\Users\Hans\Desktop\dice_negative.png"
         transform="translate(46.298371,108.61149)"
         d="m 248.21428,295.93362 a 9.6428576,9.6428576 0 1 1 -19.28571,0 9.6428576,9.6428576 0 1 1 19.28571,0 z"
         sodipodi:ry="9.6428576"
         sodipodi:rx="9.6428576"
         sodipodi:cy="295.93362"
         sodipodi:cx="238.57143"
         id="path3676-4-2-1"
         style="fill:#d40000;fill-opacity:1;stroke:none"
         sodipodi:type="arc" />
      <path
         inkscape:export-ydpi="480"
         inkscape:export-xdpi="480"
         inkscape:export-filename="C:\Users\Hans\Desktop\dice_negative.png"
         transform="translate(56.844911,90.312396)"
         d="m 248.21428,295.93362 a 9.6428576,9.6428576 0 1 1 -19.28571,0 9.6428576,9.6428576 0 1 1 19.28571,0 z"
         sodipodi:ry="9.6428576"
         sodipodi:rx="9.6428576"
         sodipodi:cy="295.93362"
         sodipodi:cx="238.57143"
         id="path3676-4-0-2"
         style="fill:#d40000;fill-opacity:1;stroke:none"
         sodipodi:type="arc" />
      <path
         inkscape:export-ydpi="480"
         inkscape:export-xdpi="480"
         inkscape:export-filename="C:\Users\Hans\Desktop\dice_negative.png"
         transform="translate(47.454591,72.518396)"
         d="m 248.21428,295.93362 a 9.6428576,9.6428576 0 1 1 -19.28571,0 9.6428576,9.6428576 0 1 1 19.28571,0 z"
         sodipodi:ry="9.6428576"
         sodipodi:rx="9.6428576"
         sodipodi:cy="295.93362"
         sodipodi:cx="238.57143"
         id="path3676-4-01-3"
         style="fill:#d40000;fill-opacity:1;stroke:none"
         sodipodi:type="arc" />
      <path
         inkscape:export-ydpi="480"
         inkscape:export-xdpi="480"
         inkscape:export-filename="C:\Users\Hans\Desktop\dice_negative.png"
         transform="translate(27.012651,108.61149)"
         d="m 248.21428,295.93362 a 9.6428576,9.6428576 0 1 1 -19.28571,0 9.6428576,9.6428576 0 1 1 19.28571,0 z"
         sodipodi:ry="9.6428576"
         sodipodi:rx="9.6428576"
         sodipodi:cy="295.93362"
         sodipodi:cx="238.57143"
         id="path3676-4-4-3"
         style="fill:#d40000;fill-opacity:1;stroke:none"
         sodipodi:type="arc" />
      <path
         inkscape:export-ydpi="480"
         inkscape:export-xdpi="480"
         inkscape:export-filename="C:\Users\Hans\Desktop\dice_negative.png"
         transform="translate(16.710741,90.883866)"
         d="m 248.21428,295.93362 a 9.6428576,9.6428576 0 1 1 -19.28571,0 9.6428576,9.6428576 0 1 1 19.28571,0 z"
         sodipodi:ry="9.6428576"
         sodipodi:rx="9.6428576"
         sodipodi:cy="295.93362"
         sodipodi:cx="238.57143"
         id="path3676-4-6-4"
         style="fill:#d40000;fill-opacity:1;stroke:none"
         sodipodi:type="arc" />
      <path
         inkscape:export-ydpi="480"
         inkscape:export-xdpi="480"
         inkscape:export-filename="C:\Users\Hans\Desktop\dice_negative.png"
         transform="translate(79.869801,137.18292)"
         d="m 248.21428,295.93362 a 9.6428576,9.6428576 0 1 1 -19.28571,0 9.6428576,9.6428576 0 1 1 19.28571,0 z"
         sodipodi:ry="9.6428576"
         sodipodi:rx="9.6428576"
         sodipodi:cy="295.93362"
         sodipodi:cx="238.57143"
         id="path3676-4-07-1"
         style="fill:#800000;fill-opacity:1;stroke:none"
         sodipodi:type="arc" />
      <path
         inkscape:export-ydpi="480"
         inkscape:export-xdpi="480"
         inkscape:export-filename="C:\Users\Hans\Desktop\dice_negative.png"
         transform="translate(100.40551,102.54006)"
         d="m 248.21428,295.93362 a 9.6428576,9.6428576 0 1 1 -19.28571,0 9.6428576,9.6428576 0 1 1 19.28571,0 z"
         sodipodi:ry="9.6428576"
         sodipodi:rx="9.6428576"
         sodipodi:cy="295.93362"
         sodipodi:cx="238.57143"
         id="path3676-4-07-7-1"
         style="fill:#800000;fill-opacity:1;stroke:none"
         sodipodi:type="arc" />
      <path
         inkscape:export-ydpi="480"
         inkscape:export-xdpi="480"
         inkscape:export-filename="C:\Users\Hans\Desktop\dice_negative.png"
         transform="translate(111.1198,119.68292)"
         d="m 248.21428,295.93362 a 9.6428576,9.6428576 0 1 1 -19.28571,0 9.6428576,9.6428576 0 1 1 19.28571,0 z"
         sodipodi:ry="9.6428576"
         sodipodi:rx="9.6428576"
         sodipodi:cy="295.93362"
         sodipodi:cx="238.57143"
         id="path3676-4-07-77-3"
         style="fill:#800000;fill-opacity:1;stroke:none"
         sodipodi:type="arc" />
      <path
         inkscape:export-ydpi="480"
         inkscape:export-xdpi="480"
         inkscape:export-filename="C:\Users\Hans\Desktop\dice_negative.png"
         transform="translate(68.976941,120.21863)"
         d="m 248.21428,295.93362 a 9.6428576,9.6428576 0 1 1 -19.28571,0 9.6428576,9.6428576 0 1 1 19.28571,0 z"
         sodipodi:ry="9.6428576"
         sodipodi:rx="9.6428576"
         sodipodi:cy="295.93362"
         sodipodi:cx="238.57143"
         id="path3676-4-07-73-8"
         style="fill:#800000;fill-opacity:1;stroke:none"
         sodipodi:type="arc" />
    </g>
  </g>
</svg>
